<?xml version="1.0" encoding="UTF-8"?>
<svg width="320px" height="320px" viewBox="0 0 320 320" version="1.1" xmlns="http://www.w3.org/2000/svg" xmlns:xlink="http://www.w3.org/1999/xlink">
    <title>images / Dimmer Switch</title>
    <g id="images-/-Dimmer-Switch" stroke="none" stroke-width="1" fill="none" fill-rule="evenodd">
        <path d="M288.206976,10 C295.784885,10 298.532818,10.7890177 301.303188,12.270628 C304.073559,13.7522383 306.247762,15.9264411 307.729372,18.6968115 C309.210982,21.4671819 310,24.2151149 310,31.7930242 L310,288.206976 C310,295.784885 309.210982,298.532818 307.729372,301.303188 C306.247762,304.073559 304.073559,306.247762 301.303188,307.729372 C298.532818,309.210982 295.784885,310 288.206976,310 L31.7930242,310 C24.2151149,310 21.4671819,309.210982 18.6968115,307.729372 C15.9264411,306.247762 13.7522383,304.073559 12.270628,301.303188 C10.7890177,298.532818 10,295.784885 10,288.206976 L10,31.7930242 C10,24.2151149 10.7890177,21.4671819 12.270628,18.6968115 C13.7522383,15.9264411 15.9264411,13.7522383 18.6968115,12.270628 C21.4671819,10.7890177 24.2151149,10 31.7930242,10 L288.206976,10 Z M284.616689,20 L35.3833112,20 C30.0341988,20 28.0944813,20.5569537 26.1389258,21.6027962 C24.1833702,22.6486388 22.6486388,24.1833702 21.6027962,26.1389258 C20.5569537,28.0944813 20,30.0341988 20,35.3833112 L20,35.3833112 L20,284.616689 C20,289.965801 20.5569537,291.905519 21.6027962,293.861074 C22.6486388,295.81663 24.1833702,297.351361 26.1389258,298.397204 C28.0944813,299.443046 30.0341988,300 35.3833112,300 L35.3833112,300 L284.616689,300 C289.965801,300 291.905519,299.443046 293.861074,298.397204 C295.81663,297.351361 297.351361,295.81663 298.397204,293.861074 C299.443046,291.905519 300,289.965801 300,284.616689 L300,284.616689 L300,35.3833112 C300,30.0341988 299.443046,28.0944813 298.397204,26.1389258 C297.351361,24.1833702 295.81663,22.6486388 293.861074,21.6027962 C291.905519,20.5569537 289.965801,20 284.616689,20 L284.616689,20 Z" id="Combined-Shape" fill="#000000"></path>
        <path d="M158,65 C209.362482,65 251,106.637518 251,158 C251,209.362482 209.362482,251 158,251 C106.637518,251 65,209.362482 65,158 C65,106.637518 106.637518,65 158,65 Z M158,75 C112.160366,75 75,112.160366 75,158 C75,203.839634 112.160366,241 158,241 C203.839634,241 241,203.839634 241,158 C241,112.160366 203.839634,75 158,75 Z" id="Combined-Shape" fill="#000000"></path>
        <path d="M268,45 C270.761424,45 273,47.2385763 273,50 L273,270 C273,272.761424 270.761424,275 268,275 L48,275 C45.2385763,275 43,272.761424 43,270 L43,50 C43,47.2385763 45.2385763,45 48,45 L268,45 Z M263,55 L53,55 L53,265 L263,265 L263,55 Z" id="Combined-Shape" fill="#000000"></path>
    </g>
</svg>