<?xml version="1.0" encoding="UTF-8"?>
<svg width="320px" height="320px" viewBox="0 0 320 320" version="1.1" xmlns="http://www.w3.org/2000/svg" xmlns:xlink="http://www.w3.org/1999/xlink">
    <title>images / ZV9010A</title>
    <g id="images-/-ZV9010A" stroke="none" stroke-width="1" fill="none" fill-rule="evenodd">
        <path d="M160.311439,-8.52651283e-14 C175.981463,-8.52651283e-14 191.570112,0.954642718 207.077386,2.86392816 C215.598522,3.91306675 222,11.151045 222,19.7365233 L222,300.221603 C221.999997,308.814104 215.588335,316.055685 207.059097,317.096437 C191.195461,319.032146 175.606132,320 160.29111,320 C145.158351,320 130.025723,319.055045 114.893226,317.165136 C106.385129,316.102555 100,308.870379 100,300.296186 L100,19.662115 C100.000001,11.0939357 106.376426,3.86485775 114.877565,2.79512832 C129.686155,0.931709439 144.83078,-8.52651283e-14 160.311439,-8.52651283e-14 Z M250.585884,8 C254.664534,8 256.580059,8.51054086 258.372651,9.46922987 C260.165244,10.4279189 261.572081,11.834756 262.53077,13.6273486 C263.489459,15.4199412 264,17.335466 264,21.4141163 L264,298.585884 C264,302.664534 263.489459,304.580059 262.53077,306.372651 C261.572081,308.165244 260.165244,309.572081 258.372651,310.53077 C256.580059,311.489459 254.664534,312 250.585884,312 L246.414116,312 C242.335466,312 240.419941,311.489459 238.627349,310.53077 C236.834756,309.572081 235.427919,308.165244 234.46923,306.372651 C233.510541,304.580059 233,302.664534 233,298.585884 L233,21.4141163 C233,17.335466 233.510541,15.4199412 234.46923,13.6273486 C235.427919,11.834756 236.834756,10.4279189 238.627349,9.46922987 C240.419941,8.51054086 242.335466,8 246.414116,8 L250.585884,8 Z M160.424318,10 C146.707512,10 133.306258,10.9810659 120.220556,12.9431977 C114.445594,13.8091228 110.147761,18.7004638 110.003732,24.509273 L110,24.8105309 L110,295.153323 C110,301.101291 114.357097,306.151701 120.240802,307.023675 C133.629519,309.007892 147.018359,310 160.407322,310 C173.920049,310 187.688192,308.989465 201.71175,306.968395 C207.516818,306.131771 211.850981,301.227597 211.996236,295.393679 L212,295.091111 L212,24.8729075 C212,18.9150965 207.628852,13.8594553 201.733536,12.9987821 C188.039784,10.999594 174.270045,10 160.424318,10 Z M249.174845,18 L247.825155,18 C246.405256,18 245.69816,18.1856512 245.046309,18.5342654 C244.394457,18.8828796 243.88288,19.3944567 243.534265,20.0463086 C243.208892,20.6547037 243.025478,21.3112221 243.002469,22.5504846 L243,22.8251553 L243,297.174845 C243,298.594744 243.185651,299.30184 243.534265,299.953691 C243.88288,300.605543 244.394457,301.11712 245.046309,301.465735 C245.654704,301.791108 246.311222,301.974522 247.550485,301.997531 L247.825155,302 L249.174845,302 C250.594744,302 251.30184,301.814349 251.953691,301.465735 C252.605543,301.11712 253.11712,300.605543 253.465735,299.953691 C253.791108,299.345296 253.974522,298.688778 253.997531,297.449515 L254,297.174845 L254,22.8251553 C254,21.4052559 253.814349,20.6981604 253.465735,20.0463086 C253.11712,19.3944567 252.605543,18.8828796 251.953691,18.5342654 C251.30184,18.1856512 250.594744,18 249.174845,18 Z M168.898631,40 C173.801984,40 175.580059,40.5105409 177.372651,41.4692299 C179.165244,42.4279189 180.572081,43.834756 181.53077,45.6273486 C182.489459,47.4199412 183,49.1980155 183,54.1013686 L183,71.8986314 C183,76.8019845 182.489459,78.5800588 181.53077,80.3726514 C180.572081,82.165244 179.165244,83.5720811 177.372651,84.5307701 C175.580059,85.4894591 173.801984,86 168.898631,86 L151.101369,86 C146.198016,86 144.419941,85.4894591 142.627349,84.5307701 C140.834756,83.5720811 139.427919,82.165244 138.46923,80.3726514 C137.510541,78.5800588 137,76.8019845 137,71.8986314 L137,54.1013686 C137,49.1980155 137.510541,47.4199412 138.46923,45.6273486 C139.427919,43.834756 140.834756,42.4279189 142.627349,41.4692299 C144.419941,40.5105409 146.198016,40 151.101369,40 L168.898631,40 Z M165.308344,50 L154.691656,50 C152.017099,50 151.047241,50.2784768 150.069463,50.8013981 C149.091685,51.3243194 148.324319,52.0916851 147.801398,53.0694629 C147.299394,54.0081296 147.022669,54.939498 147.001335,57.3787818 L147,57.6916556 L147,68.3083444 C147,70.9829006 147.278477,71.9527593 147.801398,72.9305371 C148.324319,73.9083149 149.091685,74.6756806 150.069463,75.1986019 C151.00813,75.7006063 151.939498,75.9773307 154.378782,75.9986655 L154.691656,76 L165.308344,76 C167.982901,76 168.952759,75.7215232 169.930537,75.1986019 C170.908315,74.6756806 171.675681,73.9083149 172.198602,72.9305371 C172.700606,71.9918704 172.977331,71.060502 172.998665,68.6212182 L173,68.3083444 L173,57.6916556 C173,55.0170994 172.721523,54.0472407 172.198602,53.0694629 C171.675681,52.0916851 170.908315,51.3243194 169.930537,50.8013981 C168.952759,50.2784768 167.982901,50 165.308344,50 Z" id="Combined-Shape" fill="#000000"></path>
    </g>
</svg>