<?xml version="1.0" encoding="UTF-8"?>
<svg width="320px" height="320px" viewBox="0 0 320 320" version="1.1" xmlns="http://www.w3.org/2000/svg" xmlns:xlink="http://www.w3.org/1999/xlink">
    <title>images / LED Controller 2</title>
    <g id="images-/-LED-Controller-2" stroke="none" stroke-width="1" fill="none" fill-rule="evenodd">
        <path d="M291,110 L38,110 C36.4023191,110 35.0963391,111.24892 35.0050927,112.823727 L35,113 L35,208 C35,209.597681 36.24892,210.903661 37.8237272,210.994907 L38,211 L291,211 C292.597681,211 293.903661,209.75108 293.994907,208.176273 L294,208 L294,201 L236,201 L236,120 L294,120 L294,113 C294,111.402319 292.75108,110.096339 291.176273,110.005093 L291,110 Z M294,127 L243,127 L243,194 L294,194 L294,127 Z M304,208 C304,215.179702 298.179702,221 291,221 L38,221 C33.6811265,221 29.8541526,218.893927 27.4900673,215.65277 L21.4072664,215.6523 L9.13255798,209.389724 L9.132,203.999462 L16,204 C18.6887547,204 20.8818181,201.877693 20.9953805,199.21689 L21,199 C21,196.311245 18.8776933,194.118182 16.2168896,194.00462 L16,194 L9.132,193.999462 L9.13255798,189.608438 L25,181.692 L25,177 L0,177 L0,139 L25,139 L25,113 C25,105.820298 30.8202983,100 38,100 L291,100 C298.179702,100 304,105.820298 304,113 L304,142.592779 L318.330405,149.683206 C319.352927,150.189132 320,151.231238 320,152.372077 L320,154.999779 L314,155 C311.311245,155 309.118182,157.122307 309.00462,159.78311 L309,160 C309,162.688755 311.122307,164.881818 313.78311,164.99538 L314,165 L320,164.999779 L320,168.31162 C320,169.435271 319.372082,170.464715 318.373021,170.978981 L304,178.37748 L304,208 Z M22.1217928,163.873091 L13.1915305,171.636554 C14.2275047,172.488495 15.5540181,173 17,173 C20.3137085,173 23,170.313708 23,167 C23,165.854339 22.6789024,164.783674 22.1217928,163.873091 Z M17,161 C13.6862915,161 11,163.686292 11,167 C11,168.145661 11.3210976,169.216326 11.8782072,170.126909 L20.8084695,162.363446 C19.7724953,161.511505 18.4459819,161 17,161 Z M22.1217928,145.873091 L13.1915305,153.636554 C14.2275047,154.488495 15.5540181,155 17,155 C20.3137085,155 23,152.313708 23,149 C23,147.854339 22.6789024,146.783674 22.1217928,145.873091 Z M17,143 C13.6862915,143 11,145.686292 11,149 C11,150.145661 11.3210976,151.216326 11.8782072,152.126909 L20.8084695,144.363446 C19.7724953,143.511505 18.4459819,143 17,143 Z" id="Combined-Shape" fill="#000000" fill-rule="nonzero"></path>
    </g>
</svg>