<?xml version="1.0" encoding="UTF-8"?>
<svg width="320px" height="320px" viewBox="0 0 320 320" version="1.1" xmlns="http://www.w3.org/2000/svg" xmlns:xlink="http://www.w3.org/1999/xlink">
    <title>images / ZG9023A</title>
    <g id="images-/-ZG9023A" stroke="none" stroke-width="1" fill="none" fill-rule="evenodd">
        <path d="M338,123 C344.627417,123 350,128.372583 350,135 L350,185 C350,191.627417 344.627417,197 338,197 L-18,197 C-24.627417,197 -30,191.627417 -30,185 L-30,135 C-30,128.372583 -24.627417,123 -18,123 L338,123 Z M335,129 L-15,129 C-19.8818027,129 -23.8557914,132.886814 -23.9961629,137.734638 L-24,138 L-24,182 C-24,186.881803 -20.1131863,190.855791 -15.2653623,190.996163 L-15,191 L335,191 C339.881803,191 343.855791,187.113186 343.996163,182.265362 L344,182 L344,138 C344,133.029437 339.970563,129 335,129 Z M97,138 C109.150264,138 119,147.849736 119,160 C119,172.150264 109.150264,182 97,182 C84.8497355,182 75,172.150264 75,160 C75,147.849736 84.8497355,138 97,138 Z M145,138 C157.150264,138 167,147.849736 167,160 C167,172.150264 157.150264,182 145,182 C132.849736,182 123,172.150264 123,160 C123,147.849736 132.849736,138 145,138 Z M193,138 C205.150264,138 215,147.849736 215,160 C215,172.150264 205.150264,182 193,182 C180.849736,182 171,172.150264 171,160 C171,147.849736 180.849736,138 193,138 Z M241,138 C253.150264,138 263,147.849736 263,160 C263,172.150264 253.150264,182 241,182 C228.849736,182 219,172.150264 219,160 C219,147.849736 228.849736,138 241,138 Z M97,144 C88.163444,144 81,151.163444 81,160 C81,168.836556 88.163444,176 97,176 C105.836556,176 113,168.836556 113,160 C113,151.163444 105.836556,144 97,144 Z M145,144 C136.163444,144 129,151.163444 129,160 C129,168.836556 136.163444,176 145,176 C153.836556,176 161,168.836556 161,160 C161,151.163444 153.836556,144 145,144 Z M193,144 C184.163444,144 177,151.163444 177,160 C177,168.836556 184.163444,176 193,176 C201.836556,176 209,168.836556 209,160 C209,151.163444 201.836556,144 193,144 Z M241,144 C232.163444,144 225,151.163444 225,160 C225,168.836556 232.163444,176 241,176 C249.836556,176 257,168.836556 257,160 C257,151.163444 249.836556,144 241,144 Z M-1,164 L-1,170 L-14,170 L-14,164 L-1,164 Z M299,140 C304.522847,140 309,144.477153 309,150 C309,155.522847 304.522847,160 299,160 C293.477153,160 289,155.522847 289,150 C289,144.477153 293.477153,140 299,140 Z M-1,150 L-1,156 L-14,156 L-14,150 L-1,150 Z" id="Combined-Shape" fill="#000000" transform="translate(160.000000, 160.000000) rotate(-45.000000) translate(-160.000000, -160.000000) "></path>
    </g>
</svg>