<?xml version="1.0" encoding="UTF-8"?>
<svg width="320px" height="320px" viewBox="0 0 320 320" version="1.1" xmlns="http://www.w3.org/2000/svg" xmlns:xlink="http://www.w3.org/1999/xlink">
    <title>images / ZV9020A_learnmode</title>
    <g id="images-/-ZV9020A_learnmode" stroke="none" stroke-width="1" fill="none" fill-rule="evenodd">
        <path d="M160,0 C202.525926,-7.81188583e-15 237,34.4740743 237,77 L237,243 C237,285.525926 202.525926,320 160,320 C117.474074,320 83,285.525926 83,243 L83,77 C83,34.4740743 117.474074,7.81188583e-15 160,0 Z M160,10 C123.366953,10 93.6006391,39.399983 93.0089761,75.8920325 L93,77 L93,243 C93,280.003078 122.996922,310 160,310 C196.633047,310 226.399361,280.600017 226.991024,244.107968 L227,243 L227,77 C227,39.9969218 197.003078,10 160,10 Z M160,240 C169.388841,240 177,247.611159 177,257 C177,266.388841 169.388841,274 160,274 C150.611159,274 143,266.388841 143,257 C143,247.611159 150.611159,240 160,240 Z M160,250 C156.134007,250 153,253.134007 153,257 C153,260.865993 156.134007,264 160,264 C163.865993,264 167,260.865993 167,257 C167,253.134007 163.865993,250 160,250 Z M160,15 C194.241654,15 222,42.7583455 222,77 C222,111.241654 194.241654,139 160,139 C125.758346,139 98,111.241654 98,77 C98,42.7583455 125.758346,15 160,15 Z M115.999313,49.2756014 L116,71 L108.342417,70.9999738 C108.116237,72.9686372 108,74.9707442 108,77 C108,79.3743187 108.159129,81.7114708 108.467305,84.0013729 L116,84 L115.999313,104.724399 C124.371215,117.983368 138.570619,127.195321 154.99998,128.762716 L155,115 L165,115 L165.001018,128.76262 C181.430782,127.194869 195.630383,117.982172 204.001951,104.722398 L204,84 L211.532695,84.0013729 C211.840871,81.7114708 212,79.3743187 212,77 C212,74.9707442 211.883763,72.9686372 211.657583,70.9999738 L204,71 L204.001951,49.2776025 C195.630383,36.0178277 181.430782,26.8051306 165.001018,25.2373797 L165,39 L155,39 L154.99998,25.2372845 C138.570619,26.8046785 124.371215,36.0166323 115.999313,49.2756014 Z M134.5,68.5 C139.19442,68.5 143,72.3055796 143,77 C143,81.6944204 139.19442,85.5 134.5,85.5 C129.80558,85.5 126,81.6944204 126,77 C126,72.3055796 129.80558,68.5 134.5,68.5 Z M185.5,68.5 C190.19442,68.5 194,72.3055796 194,77 C194,81.6944204 190.19442,85.5 185.5,85.5 C180.80558,85.5 177,81.6944204 177,77 C177,72.3055796 180.80558,68.5 185.5,68.5 Z" id="Combined-Shape" fill="#000000"></path>
    </g>
</svg>