<?xml version="1.0" encoding="UTF-8"?>
<svg width="320px" height="320px" viewBox="0 0 320 320" version="1.1" xmlns="http://www.w3.org/2000/svg" xmlns:xlink="http://www.w3.org/1999/xlink">
    <title>images / curtain</title>
    <g id="images-/-curtain" stroke="none" stroke-width="1" fill="none" fill-rule="evenodd">
        <path d="M283,10 C292.388841,10 300,17.6111593 300,27 L313,27 C316.865993,27 320,30.1340068 320,34 L320,40 C320,43.8659932 316.865993,47 313,47 L300,47 L300,293 C300,302.388841 292.388841,310 283,310 L37,310 C27.6111593,310 20,302.388841 20,293 L20,47 L7,47 C3.13400675,47 0,43.8659932 0,40 L0,34 C0,30.1340068 3.13400675,27 7,27 L20,27 C20,17.6111593 27.6111593,10 37,10 L283,10 Z M257,179 C242.26935,179 229.664169,169.899787 224.49965,157.014556 C219.335831,169.899787 206.73065,179 192,179 C177.26935,179 164.664169,169.899787 159.49965,157.014556 C154.335831,169.899787 141.73065,179 127,179 C112.26935,179 99.6641695,169.899787 94.4996504,157.014556 C89.3358305,169.899787 76.7306495,179 62,179 C47.7250538,179 35.4461043,170.454122 30,158.199373 L30,288 C30,294.525457 35.2085444,299.834393 41.6950252,299.9962 L42,300 L278,300 C284.525457,300 289.834393,294.791456 289.9962,288.304975 L290.000973,288 L290.000973,155.687753 C285.190266,169.270648 272.231339,179 257,179 Z M87,47 L37,47 L37,144 C37,157.807119 48.1928813,169 62,169 C75.6690476,169 86.775881,158.029857 86.9966507,144.413421 L87,144 L87,47 Z M152,47 L102,47 L102,144 C102,157.807119 113.192881,169 127,169 C140.669048,169 151.775881,158.029857 151.996651,144.413421 L152,144 L152,47 Z M217,47 L167,47 L167,144 C167,157.807119 178.192881,169 192,169 C205.669048,169 216.775881,158.029857 216.996651,144.413421 L217,144 L217,47 Z M282,47 L232,47 L232,144 C232,157.807119 243.192881,169 257,169 C270.669048,169 281.775881,158.029857 281.996651,144.413421 L282,144 L282,47 Z" id="Shape" fill="#000000"></path>
    </g>
</svg>