<?xml version="1.0" encoding="UTF-8"?>
<svg width="320px" height="320px" viewBox="0 0 320 320" version="1.1" xmlns="http://www.w3.org/2000/svg" xmlns:xlink="http://www.w3.org/1999/xlink">
    <title>images / Namron 4512744</title>
    <g id="images-/-Namron-4512744" stroke="none" stroke-width="1" fill="none" fill-rule="evenodd">
        <path d="M288.206976,10 C295.311266,10 298.170459,10.6934726 300.782822,12.0009659 L301.130026,12.17893 C301.187766,12.2091948 301.245472,12.2397611 301.303188,12.270628 C304.073559,13.7522383 306.247762,15.9264411 307.729372,18.6968115 L307.82107,18.8699743 L307.999034,19.2171777 C309.306527,21.8295406 310,24.6887342 310,31.7930242 L310,288.206976 C310,295.311266 309.306527,298.170459 307.999034,300.782822 L307.82107,301.130026 C307.790805,301.187766 307.760239,301.245472 307.729372,301.303188 C306.247762,304.073559 304.073559,306.247762 301.303188,307.729372 L301.130026,307.82107 L300.782822,307.999034 C298.170459,309.306527 295.311266,310 288.206976,310 L31.7930242,310 C24.6887342,310 21.8295406,309.306527 19.2171777,307.999034 L18.8699743,307.82107 C18.8122339,307.790805 18.7545276,307.760239 18.6968115,307.729372 C15.9264411,306.247762 13.7522383,304.073559 12.270628,301.303188 L12.17893,301.130026 L12.0009659,300.782822 C10.6934726,298.170459 10,295.311266 10,288.206976 L10,31.7930242 C10,24.6887342 10.6934726,21.8295406 12.0009659,19.2171777 L12.17893,18.8699743 C12.2091948,18.8122339 12.2397611,18.7545276 12.270628,18.6968115 C13.7522383,15.9264411 15.9264411,13.7522383 18.6968115,12.270628 L18.8699743,12.17893 L19.2171777,12.0009659 C21.8295406,10.6934726 24.6887342,10 31.7930242,10 L288.206976,10 Z M284.616689,20 L35.3833112,20 C30.0341988,20 28.0944813,20.5569537 26.1389258,21.6027962 C24.1833702,22.6486388 22.6486388,24.1833702 21.6027962,26.1389258 C20.5844758,28.0430193 20.0296519,29.9320974 20.0011559,34.9680337 L20,35.3833112 L20,284.616689 C20,289.965801 20.5569537,291.905519 21.6027962,293.861074 C22.6486388,295.81663 24.1833702,297.351361 26.1389258,298.397204 C28.0430193,299.415524 29.9320974,299.970348 34.9680337,299.998844 L35.3833112,300 L284.616689,300 C289.965801,300 291.905519,299.443046 293.861074,298.397204 C295.81663,297.351361 297.351361,295.81663 298.397204,293.861074 C299.415524,291.956981 299.970348,290.067903 299.998844,285.031966 L300,284.616689 L300,35.3833112 C300,30.0341988 299.443046,28.0944813 298.397204,26.1389258 C297.351361,24.1833702 295.81663,22.6486388 293.861074,21.6027962 C291.905519,20.5569537 289.965801,20 284.616689,20 Z M76,247 C83.7319865,247 90,253.268014 90,261 C90,268.731986 83.7319865,275 76,275 C68.2680135,275 62,268.731986 62,261 C62,253.268014 68.2680135,247 76,247 Z M257.457019,250 L243,272.067404 L230.099447,250 L257.457019,250 Z M168,217 L168,221 L153,221 L153,230 L168,230 L168,234 L153,234 L153,246.5 L149,246.5 L149,217 L168,217 Z M76,192 C83.7319865,192 90,198.268014 90,206 C90,213.731986 83.7319865,220 76,220 C68.2680135,220 62,213.731986 62,206 C62,198.268014 68.2680135,192 76,192 Z M243,195 L257.457019,217.067404 L230.099447,217.067404 L243,195 Z M253,51 L253,151 L67,151 L67,51 L253,51 Z" id="Combined-Shape" fill="#000000"></path>
    </g>
</svg>