<?xml version="1.0" encoding="UTF-8"?>
<svg width="320px" height="320px" viewBox="0 0 320 320" version="1.1" xmlns="http://www.w3.org/2000/svg" xmlns:xlink="http://www.w3.org/1999/xlink">
    <title>images / ZG2833K8_EU05_learnmode</title>
    <g id="images-/-ZG2833K8_EU05_learnmode" stroke="none" stroke-width="1" fill="none" fill-rule="evenodd">
        <rect id="Rectangle" fill="#000000" x="44" y="99" width="74" height="10"></rect>
        <rect id="Rectangle-Copy-7" fill="#000000" x="204" y="99" width="74" height="10"></rect>
        <rect id="Rectangle-Copy-5" fill="#000000" x="44" y="156" width="74" height="10"></rect>
        <rect id="Rectangle-Copy-8" fill="#000000" x="204" y="156" width="74" height="10"></rect>
        <rect id="Rectangle-Copy-6" fill="#000000" x="44" y="213" width="74" height="10"></rect>
        <rect id="Rectangle-Copy-9" fill="#000000" x="204" y="213" width="74" height="10"></rect>
        <path d="M288.206976,10 C295.784885,10 298.532818,10.7890177 301.303188,12.270628 C304.073559,13.7522383 306.247762,15.9264411 307.729372,18.6968115 C309.210982,21.4671819 310,24.2151149 310,31.7930242 L310,288.206976 C310,295.784885 309.210982,298.532818 307.729372,301.303188 C306.247762,304.073559 304.073559,306.247762 301.303188,307.729372 C298.532818,309.210982 295.784885,310 288.206976,310 L31.7930242,310 C24.2151149,310 21.4671819,309.210982 18.6968115,307.729372 C15.9264411,306.247762 13.7522383,304.073559 12.270628,301.303188 C10.7890177,298.532818 10,295.784885 10,288.206976 L10,31.7930242 C10,24.2151149 10.7890177,21.4671819 12.270628,18.6968115 C13.7522383,15.9264411 15.9264411,13.7522383 18.6968115,12.270628 C21.4671819,10.7890177 24.2151149,10 31.7930242,10 L288.206976,10 Z M284.616689,20 L35.3833112,20 C30.0341988,20 28.0944813,20.5569537 26.1389258,21.6027962 C24.1833702,22.6486388 22.6486388,24.1833702 21.6027962,26.1389258 C20.5569537,28.0944813 20,30.0341988 20,35.3833112 L20,35.3833112 L20,284.616689 C20,289.965801 20.5569537,291.905519 21.6027962,293.861074 C22.6486388,295.81663 24.1833702,297.351361 26.1389258,298.397204 C28.0944813,299.443046 30.0341988,300 35.3833112,300 L35.3833112,300 L284.616689,300 C289.965801,300 291.905519,299.443046 293.861074,298.397204 C295.81663,297.351361 297.351361,295.81663 298.397204,293.861074 C299.443046,291.905519 300,289.965801 300,284.616689 L300,284.616689 L300,35.3833112 C300,30.0341988 299.443046,28.0944813 298.397204,26.1389258 C297.351361,24.1833702 295.81663,22.6486388 293.861074,21.6027962 C291.905519,20.5569537 289.965801,20 284.616689,20 L284.616689,20 Z" id="Combined-Shape" fill="#000000"></path>
        <path d="M271.590287,44 C273.819084,44 274.627299,44.232064 275.442114,44.6678318 C276.256929,45.1035995 276.896401,45.7430709 277.332168,46.5578857 C277.767936,47.3727006 278,48.1809162 278,50.409713 L278,271.590287 C278,273.819084 277.767936,274.627299 277.332168,275.442114 C276.896401,276.256929 276.256929,276.896401 275.442114,277.332168 C274.627299,277.767936 273.819084,278 271.590287,278 L50.409713,278 C48.1809162,278 47.3727006,277.767936 46.5578857,277.332168 C45.7430709,276.896401 45.1035995,276.256929 44.6678318,275.442114 C44.232064,274.627299 44,273.819084 44,271.590287 L44,50.409713 C44,48.1809162 44.232064,47.3727006 44.6678318,46.5578857 C45.1035995,45.7430709 45.7430709,45.1035995 46.5578857,44.6678318 C47.3727006,44.232064 48.1809162,44 50.409713,44 L271.590287,44 Z M265.718057,53 L54.2819426,53 C53.8361832,53 53.6745401,53.0464128 53.5115771,53.1335664 C53.3486142,53.2207199 53.2207199,53.3486142 53.1335664,53.5115771 C53.0464128,53.6745401 53,53.8361832 53,54.2819426 L53,54.2819426 L53,265.718057 C53,266.163817 53.0464128,266.32546 53.1335664,266.488423 C53.2207199,266.651386 53.3486142,266.77928 53.5115771,266.866434 C53.6745401,266.953587 53.8361832,267 54.2819426,267 L54.2819426,267 L265.718057,267 C266.163817,267 266.32546,266.953587 266.488423,266.866434 C266.651386,266.77928 266.77928,266.651386 266.866434,266.488423 C266.953587,266.32546 267,266.163817 267,265.718057 L267,265.718057 L267,54.2819426 C267,53.8361832 266.953587,53.6745401 266.866434,53.5115771 C266.77928,53.3486142 266.651386,53.2207199 266.488423,53.1335664 C266.32546,53.0464128 266.163817,53 265.718057,53 L265.718057,53 Z" id="Combined-Shape" fill="#000000"></path>
        <rect id="Rectangle" fill="#000000" x="109" y="44" width="10" height="234"></rect>
        <rect id="Rectangle-Copy-4" fill="#000000" x="201" y="44" width="10" height="234"></rect>
        <g id="images-/-reset" transform="translate(53.000000, 61.000000)" fill="#000000" fill-rule="nonzero">
            <path d="M15.3681641,21.5541992 C15.8505859,21.5541992 16.2216797,21.2202148 16.2216797,20.7841797 C16.2216797,20.5986328 16.175293,20.4316406 16.0454102,20.199707 L13.5961914,15.8300781 C15.2753906,15.3012695 16.2866211,13.8540039 16.2866211,11.9892578 C16.2866211,9.57714844 14.5981445,8 12.019043,8 L7.83496094,8 C7.32470703,8 7,8.33398438 7,8.86279297 L7,20.6914062 C7,21.2109375 7.33398437,21.5541992 7.83496094,21.5541992 C8.3359375,21.5541992 8.66992187,21.2109375 8.66992187,20.6914062 L8.66992187,16.0898438 L11.8706055,16.0898438 L14.5517578,21.0161133 C14.7651367,21.4150391 14.987793,21.5541992 15.3681641,21.5541992 Z M11.8706055,14.6147461 L8.66992187,14.6147461 L8.66992187,9.484375 L11.7963867,9.484375 C13.5219727,9.484375 14.5610352,10.4399414 14.5610352,12.0449219 C14.5610352,13.6870117 13.5869141,14.6147461 11.8706055,14.6147461 Z M21.7194991,21.5541992 C23.4821944,21.5541992 24.8366866,20.8120117 25.4582686,19.5039062 C25.5324874,19.3276367 25.5788741,19.1606445 25.5788741,19.0307617 C25.5788741,18.6040039 25.2912764,18.3256836 24.8645186,18.3256836 C24.6140303,18.3256836 24.4284835,18.418457 24.2614913,18.6503906 C23.5100264,19.7451172 22.8049483,20.1533203 21.6545577,20.1533203 C19.9289717,20.1533203 18.8620772,18.9472656 18.8620772,16.9990234 L24.8923506,16.9990234 C25.4489913,16.9990234 25.7829756,16.6464844 25.7829756,16.0620117 C25.7829756,13.4179688 24.0481124,11.5717773 21.5803389,11.5717773 C18.9177413,11.5717773 17.2014327,13.5571289 17.2014327,16.6000977 C17.2014327,19.7172852 18.8713546,21.5541992 21.7194991,21.5541992 Z M24.1130538,15.7373047 L18.8713546,15.7373047 C18.9734053,14.0766602 20.0495772,12.9726562 21.5525069,12.9726562 C23.0461592,12.9726562 24.0759444,14.0673828 24.1130538,15.7373047 Z M30.2973966,21.5541992 C32.5889005,21.5541992 34.1382169,20.3945312 34.1382169,18.6689453 C34.1382169,17.2495117 33.3960294,16.5444336 31.3828458,16.0527344 L29.9448575,15.7001953 C28.8872404,15.4404297 28.3677091,14.9765625 28.3677091,14.3085938 C28.3677091,13.4829102 29.174838,12.8984375 30.334506,12.8984375 C31.3179044,12.8984375 31.9394865,13.2509766 32.3569669,14.0581055 C32.5332365,14.3920898 32.7558927,14.4941406 33.0713224,14.4941406 C33.4609708,14.4941406 33.7021818,14.2436523 33.7021818,13.8632812 C33.7021818,13.7890625 33.6929044,13.7148438 33.6743497,13.6220703 C33.4238615,12.4624023 32.0137052,11.5717773 30.4272794,11.5717773 C28.2471036,11.5717773 26.772006,12.7128906 26.772006,14.3920898 C26.772006,15.746582 27.6719083,16.6279297 29.5366544,17.0917969 L31.0117521,17.4628906 C32.0972013,17.7319336 32.4961271,18.1030273 32.4961271,18.7988281 C32.4961271,19.6987305 31.6611661,20.2368164 30.4272794,20.2368164 C29.1933927,20.2368164 28.6181974,19.8564453 28.1357755,19.012207 C27.9502286,18.6782227 27.718295,18.5297852 27.4306974,18.5297852 C27.0132169,18.5297852 26.6977872,18.7709961 26.6977872,19.1977539 C26.6977872,19.3183594 26.7163419,19.4389648 26.772006,19.578125 C27.2358732,20.7841797 28.581088,21.5541992 30.2973966,21.5541992 Z M39.3762707,21.5541992 C41.138966,21.5541992 42.4934582,20.8120117 43.1150402,19.5039062 C43.189259,19.3276367 43.2356457,19.1606445 43.2356457,19.0307617 C43.2356457,18.6040039 42.948048,18.3256836 42.5212902,18.3256836 C42.2708019,18.3256836 42.0852551,18.418457 41.9182629,18.6503906 C41.166798,19.7451172 40.4617199,20.1533203 39.3113293,20.1533203 C37.5857433,20.1533203 36.5188488,18.9472656 36.5188488,16.9990234 L42.5491223,16.9990234 C43.1057629,16.9990234 43.4397473,16.6464844 43.4397473,16.0620117 C43.4397473,13.4179688 41.704884,11.5717773 39.2371105,11.5717773 C36.5745129,11.5717773 34.8582043,13.5571289 34.8582043,16.6000977 C34.8582043,19.7172852 36.5281262,21.5541992 39.3762707,21.5541992 Z M41.7698254,15.7373047 L36.5281262,15.7373047 C36.6301769,14.0766602 37.7063488,12.9726562 39.2092785,12.9726562 C40.7029308,12.9726562 41.732716,14.0673828 41.7698254,15.7373047 Z M47.5645198,21.4614258 C48.4644221,21.4614258 48.7427424,21.2016602 48.7427424,20.7099609 C48.7427424,20.3295898 48.5015315,20.1162109 47.9727229,20.0791016 L47.8335627,20.0698242 C47.0264338,20.0141602 46.7388362,19.6245117 46.7388362,18.8081055 L46.7388362,13.0654297 L47.9820002,13.0654297 C48.4458674,13.0654297 48.7056331,12.8242188 48.7056331,12.3974609 C48.7056331,11.9799805 48.4458674,11.7387695 47.9820002,11.7387695 L46.7388362,11.7387695 L46.7388362,10.0874023 C46.7388362,9.57714844 46.4048518,9.22460938 45.9317073,9.22460938 C45.4585627,9.22460938 45.1245784,9.57714844 45.1245784,10.0874023 L45.1245784,11.7387695 L44.3174495,11.7387695 C43.8535823,11.7387695 43.5938167,11.9799805 43.5938167,12.3974609 C43.5938167,12.8242188 43.8535823,13.0654297 44.3174495,13.0654297 L45.1245784,13.0654297 L45.1245784,19.1606445 C45.1245784,20.7006836 45.9038752,21.4614258 47.462469,21.4614258 L47.5645198,21.4614258 Z" id="Reset"></path>
        </g>
        <g id="images-/-pair" transform="translate(211.000000, 61.000000)" fill="#000000" fill-rule="nonzero">
            <path d="M15.8349609,21.5170898 C16.3452148,21.5170898 16.6699219,21.1831055 16.6699219,20.6542969 L16.6699219,16.609375 L19.7592773,16.609375 C22.2734375,16.609375 24.0639648,14.8374023 24.0639648,12.2954102 C24.0639648,9.76269531 22.2919922,8 19.777832,8 L15.8349609,8 C15.324707,8 15,8.33398438 15,8.86279297 L15,20.6542969 C15,21.1831055 15.324707,21.5170898 15.8349609,21.5170898 Z M19.3417969,15.125 L16.6699219,15.125 L16.6699219,9.484375 L19.3417969,9.484375 C21.262207,9.484375 22.3476562,10.5234375 22.3476562,12.2954102 C22.3476562,14.0766602 21.2529297,15.125 19.3417969,15.125 Z M31.1574874,21.5541992 C31.6027999,21.5541992 31.9182296,21.2202148 31.9182296,20.737793 L31.9182296,14.7167969 C31.9182296,12.7963867 30.4895186,11.5717773 28.2258467,11.5717773 C26.6579756,11.5717773 25.2478194,12.2675781 24.7004561,13.3251953 C24.5705733,13.5571289 24.5056319,13.7890625 24.5056319,13.9931641 C24.5056319,14.4291992 24.8025069,14.7167969 25.2199874,14.7167969 C25.5261397,14.7167969 25.7395186,14.5961914 25.8879561,14.3271484 C26.4260421,13.371582 27.1403975,12.9912109 28.1887374,12.9912109 C29.5246749,12.9912109 30.3039717,13.6962891 30.3039717,14.8745117 L30.3039717,15.6816406 L27.530046,15.8393555 C25.3034835,15.9692383 24.0324874,17.0083008 24.0324874,18.659668 C24.0324874,20.3945312 25.3220381,21.5541992 27.2424483,21.5541992 C28.5412764,21.5541992 29.7751631,20.8305664 30.3503585,19.7265625 L30.3874678,19.7265625 L30.3874678,20.737793 C30.3874678,21.2202148 30.7028975,21.5541992 31.1574874,21.5541992 Z M27.6042647,20.1811523 C26.4445967,20.1811523 25.6745772,19.578125 25.6745772,18.659668 C25.6745772,17.7504883 26.4167647,17.175293 27.7155928,17.0917969 L30.3039717,16.934082 L30.3039717,17.7226562 C30.3039717,19.1142578 29.1257491,20.1811523 27.6042647,20.1811523 Z M34.4009122,10.1152344 C34.9575529,10.1152344 35.4121427,9.66064453 35.4121427,9.11328125 C35.4121427,8.55664062 34.9575529,8.11132812 34.4009122,8.11132812 C33.853549,8.11132812 33.3989591,8.55664062 33.3989591,9.11328125 C33.3989591,9.66064453 33.853549,10.1152344 34.4009122,10.1152344 Z M34.4009122,21.5541992 C34.8740568,21.5541992 35.2080411,21.2016602 35.2080411,20.6914062 L35.2080411,12.4345703 C35.2080411,11.9243164 34.8740568,11.5717773 34.4009122,11.5717773 C33.9277677,11.5717773 33.5937833,11.9243164 33.5937833,12.4345703 L33.5937833,20.6914062 C33.5937833,21.2016602 33.9277677,21.5541992 34.4009122,21.5541992 Z M37.7371105,21.5541992 C38.2102551,21.5541992 38.5442394,21.2016602 38.5442394,20.6914062 L38.5442394,15.394043 C38.5442394,14.1601562 39.1658215,13.1118164 40.6223644,13.1118164 C40.9749035,13.1118164 41.2253918,13.046875 41.392384,12.9077148 C41.5593762,12.777832 41.6428723,12.5922852 41.6428723,12.3417969 C41.6428723,12.1191406 41.5779308,11.9335938 41.4387707,11.8037109 C41.2810558,11.6552734 41.0305676,11.5717773 40.6780285,11.5717773 C39.7131848,11.5717773 38.7668957,12.3139648 38.4885754,13.315918 L38.451466,13.315918 L38.451466,12.3881836 C38.451466,11.9057617 38.1360363,11.5717773 37.6907238,11.5717773 C37.2454113,11.5717773 36.9299816,11.9057617 36.9299816,12.3881836 L36.9299816,20.6914062 C36.9299816,21.2016602 37.263966,21.5541992 37.7371105,21.5541992 Z" id="Pair"></path>
        </g>
    </g>
</svg>