<?xml version="1.0" encoding="UTF-8"?>
<svg width="320px" height="320px" viewBox="0 0 320 320" version="1.1" xmlns="http://www.w3.org/2000/svg" xmlns:xlink="http://www.w3.org/1999/xlink">
    <title>images / ZG2819S-RGBW</title>
    <g id="images-/-ZG2819S-RGBW" stroke="none" stroke-width="1" fill="none" fill-rule="evenodd">
        <path d="M217.536914,5.34265408 C224.055433,8.82879593 229.171204,13.9445674 232.657346,20.4630859 L233.020367,21.1535867 C236.272223,27.4521652 238,34.0766365 238,51.277704 L238,268.722296 C238,286.552671 236.143488,293.018396 232.657346,299.536914 C229.171204,306.055433 224.055433,311.171204 217.536914,314.657346 L216.846413,315.020367 C210.547835,318.272223 203.923363,320 186.722296,320 L133.277704,320 C115.447329,320 108.981604,318.143488 102.463086,314.657346 C95.9445674,311.171204 90.8287959,306.055433 87.3426541,299.536914 L86.9753339,298.838084 C83.7658945,292.618808 82.042349,286.077418 82,269.346903 L82,51.277704 C82,33.4473292 83.8565122,26.9816044 87.3426541,20.4630859 C90.8287959,13.9445674 95.9445674,8.82879593 102.463086,5.34265408 L103.161916,4.97533387 C109.381192,1.76589448 115.922582,0.0423490011 132.653097,0 L186.722296,0 C204.552671,0 211.018396,1.85651222 217.536914,5.34265408 Z M186.722439,10 L132.677949,10 L130.859787,10.0113764 C117.882913,10.1339037 112.625169,11.2481827 107.179075,14.1607861 C102.403241,16.7149299 98.7149299,20.4032407 96.1607861,25.1790745 L95.9051482,25.6657486 C93.1450911,31.0192797 92.092191,36.4523384 92.005852,49.4567118 L92,51.2776687 L92,269.322051 L92.0113764,271.140213 C92.1339037,284.117087 93.2481827,289.374831 96.1607861,294.820925 C98.7149299,299.596759 102.403241,303.28507 107.179075,305.839214 L107.665749,306.094852 C113.01928,308.854909 118.452339,309.907809 131.456743,309.994148 L133.277704,310 L186.722296,310 C201.468981,310 207.059608,308.9204 212.820925,305.839214 C217.596759,303.28507 221.28507,299.596759 223.839214,294.820925 L224.094852,294.334251 C226.854909,288.98072 227.907809,283.547661 227.994148,270.543257 L228,268.722296 L228,51.277704 C228,36.5310186 226.9204,30.9403919 223.839214,25.1790745 C221.28507,20.4032407 217.596759,16.7149299 212.820925,14.1607861 L212.334251,13.9051482 C206.98072,11.1450911 201.547664,10.092191 188.543382,10.005852 L186.722439,10 Z M127,248 C131.970563,248 136,252.029437 136,257 C136,261.970563 131.970563,266 127,266 L113,266 C108.029437,266 104,261.970563 104,257 C104,252.029437 108.029437,248 113,248 L127,248 Z M167,248 C171.970563,248 176,252.029437 176,257 C176,261.970563 171.970563,266 167,266 L153,266 C148.029437,266 144,261.970563 144,257 C144,252.029437 148.029437,248 153,248 L167,248 Z M207,248 C211.970563,248 216,252.029437 216,257 C216,261.970563 211.970563,266 207,266 L193,266 C188.029437,266 184,261.970563 184,257 C184,252.029437 188.029437,248 193,248 L207,248 Z M208.464142,218 C210.941845,218 211.944513,218.278477 212.922291,218.801398 C213.900068,219.324319 214.667434,220.091685 215.190355,221.069463 C215.690541,222.004729 215.967076,222.962767 215.990177,225.212679 L215.991754,228.472389 C215.991754,230.950092 215.713277,231.952759 215.190355,232.930537 C214.667434,233.908315 213.900068,234.675681 212.922291,235.198602 C211.987025,235.698787 211.028987,235.975323 208.779075,235.998424 L187.519365,236 C185.041662,236 184.038994,235.721523 183.061216,235.198602 C182.083439,234.675681 181.316073,233.908315 180.793152,232.930537 C180.32229,232.050101 180.049623,231.149485 180,229.169961 L190.057754,218 L208.464142,218 Z M129.934,217 L139.991754,228.169961 C139.94213,230.149485 139.669464,231.050101 139.198602,231.930537 C138.675681,232.908315 137.908315,233.675681 136.930537,234.198602 C135.995271,234.698787 135.037233,234.975323 132.787321,234.998424 L132.472389,235 L111.212679,234.998424 C108.962767,234.975323 108.004729,234.698787 107.069463,234.198602 C106.091685,233.675681 105.324319,232.908315 104.801398,231.930537 C104.301213,230.995271 104.024677,230.037233 104.001576,227.787321 L104,227.472389 L104.001576,224.212679 C104.024677,221.962767 104.301213,221.004729 104.801398,220.069463 C105.324319,219.091685 106.091685,218.324319 107.069463,217.801398 C108.004729,217.301213 108.962767,217.024677 111.212679,217.001576 L111.527611,217 L129.934,217 Z M160,178 C173.254834,178 184,188.745166 184,202 C184,215.254834 173.254834,226 160,226 C146.745166,226 136,215.254834 136,202 C136,188.745166 146.745166,178 160,178 Z M187.519365,169 L208.779075,169.001576 C211.028987,169.024677 211.987025,169.301213 212.922291,169.801398 C213.900068,170.324319 214.667434,171.091685 215.190355,172.069463 C215.690541,173.004729 215.967076,173.962767 215.990177,176.212679 L215.991754,176.527611 L215.990177,179.787321 C215.967076,182.037233 215.690541,182.995271 215.190355,183.930537 C214.667434,184.908315 213.900068,185.675681 212.922291,186.198602 C211.987025,186.698787 211.028987,186.975323 208.779075,186.998424 L208.464142,187 L190.057754,187 L180,175.830039 C180.049623,173.850515 180.32229,172.949899 180.793152,172.069463 C181.316073,171.091685 182.083439,170.324319 183.061216,169.801398 C184.038994,169.278477 185.041662,169 187.519365,169 Z M132.472389,168 C134.950092,168 135.952759,168.278477 136.930537,168.801398 C137.908315,169.324319 138.675681,170.091685 139.198602,171.069463 C139.669464,171.949899 139.94213,172.850515 139.991754,174.830039 L129.934,186 L111.527611,186 C109.049908,186 108.047241,185.721523 107.069463,185.198602 C106.091685,184.675681 105.324319,183.908315 104.801398,182.930537 C104.301213,181.995271 104.024677,181.037233 104.001576,178.787321 L104,175.527611 C104,173.049908 104.278477,172.047241 104.801398,171.069463 C105.324319,170.091685 106.091685,169.324319 107.069463,168.801398 C108.004729,168.301213 108.962767,168.024677 111.212679,168.001576 L132.472389,168 Z M118,137 C122.418278,137 126,140.581722 126,145 C126,149.418278 122.418278,153 118,153 C113.581722,153 110,149.418278 110,145 C110,140.581722 113.581722,137 118,137 Z M146,137 C150.418278,137 154,140.581722 154,145 C154,149.418278 150.418278,153 146,153 C141.581722,153 138,149.418278 138,145 C138,140.581722 141.581722,137 146,137 Z M174,137 C178.418278,137 182,140.581722 182,145 C182,149.418278 178.418278,153 174,153 C169.581722,153 166,149.418278 166,145 C166,140.581722 169.581722,137 174,137 Z M202,137 C206.418278,137 210,140.581722 210,145 C210,149.418278 206.418278,153 202,153 C197.581722,153 194,149.418278 194,145 C194,140.581722 197.581722,137 202,137 Z M160,24 C187.061953,24 209,45.9380473 209,73 C209,100.061953 187.061953,122 160,122 C132.938047,122 111,100.061953 111,73 C111,45.9380473 132.938047,24 160,24 Z M160,56 C150.611159,56 143,63.6111593 143,73 C143,82.3888407 150.611159,90 160,90 C169.388841,90 177,82.3888407 177,73 C177,63.6111593 169.388841,56 160,56 Z" id="Combined-Shape" fill="#000000"></path>
    </g>
</svg>