<?xml version="1.0" encoding="UTF-8"?>
<svg width="320px" height="320px" viewBox="0 0 320 320" version="1.1" xmlns="http://www.w3.org/2000/svg" xmlns:xlink="http://www.w3.org/1999/xlink">
    <title>images / ZG2819S-RGBW learning</title>
    <g id="images-/-ZG2819S-RGBW-learning" stroke="none" stroke-width="1" fill="none" fill-rule="evenodd">
        <path d="M217.536914,5.34265408 C224.055433,8.82879593 229.171204,13.9445674 232.657346,20.4630859 L233.020367,21.1535867 C236.272223,27.4521652 238,34.0766365 238,51.277704 L238,268.722296 C238,286.552671 236.143488,293.018396 232.657346,299.536914 C229.171204,306.055433 224.055433,311.171204 217.536914,314.657346 L216.846413,315.020367 C210.547835,318.272223 203.923363,320 186.722296,320 L133.277704,320 C115.447329,320 108.981604,318.143488 102.463086,314.657346 C95.9445674,311.171204 90.8287959,306.055433 87.3426541,299.536914 L86.9753339,298.838084 C83.7658945,292.618808 82.042349,286.077418 82,269.346903 L82,51.277704 C82,33.4473292 83.8565122,26.9816044 87.3426541,20.4630859 C90.8287959,13.9445674 95.9445674,8.82879593 102.463086,5.34265408 L103.161916,4.97533387 C109.381192,1.76589448 115.922582,0.0423490011 132.653097,0 L186.722296,0 C204.552671,0 211.018396,1.85651222 217.536914,5.34265408 Z M186.722439,10 L132.677949,10 L130.859787,10.0113764 C117.882913,10.1339037 112.625169,11.2481827 107.179075,14.1607861 C102.403241,16.7149299 98.7149299,20.4032407 96.1607861,25.1790745 L95.9051482,25.6657486 C93.1450911,31.0192797 92.092191,36.4523384 92.005852,49.4567118 L92,51.2776687 L92,269.322051 L92.0113764,271.140213 C92.1339037,284.117087 93.2481827,289.374831 96.1607861,294.820925 C98.7149299,299.596759 102.403241,303.28507 107.179075,305.839214 L107.665749,306.094852 C113.01928,308.854909 118.452339,309.907809 131.456743,309.994148 L133.277704,310 L186.722296,310 C201.468981,310 207.059608,308.9204 212.820925,305.839214 C217.596759,303.28507 221.28507,299.596759 223.839214,294.820925 L224.094852,294.334251 C226.854909,288.98072 227.907809,283.547661 227.994148,270.543257 L228,268.722296 L228,51.277704 C228,36.5310186 226.9204,30.9403919 223.839214,25.1790745 C221.28507,20.4032407 217.596759,16.7149299 212.820925,14.1607861 L212.334251,13.9051482 C206.98072,11.1450911 201.547664,10.092191 188.543382,10.005852 L186.722439,10 Z M127,248 C131.970563,248 136,252.029437 136,257 C136,261.970563 131.970563,266 127,266 L113,266 C108.029437,266 104,261.970563 104,257 C104,252.029437 108.029437,248 113,248 L127,248 Z M167,248 C171.970563,248 176,252.029437 176,257 C176,261.970563 171.970563,266 167,266 L153,266 C148.029437,266 144,261.970563 144,257 C144,252.029437 148.029437,248 153,248 L167,248 Z M207,248 C211.970563,248 216,252.029437 216,257 C216,261.970563 211.970563,266 207,266 L193,266 C188.029437,266 184,261.970563 184,257 C184,252.029437 188.029437,248 193,248 L207,248 Z M208.464142,218 C210.941845,218 211.944513,218.278477 212.922291,218.801398 C213.900068,219.324319 214.667434,220.091685 215.190355,221.069463 C215.690541,222.004729 215.967076,222.962767 215.990177,225.212679 L215.991754,228.472389 C215.991754,230.950092 215.713277,231.952759 215.190355,232.930537 C214.667434,233.908315 213.900068,234.675681 212.922291,235.198602 C211.987025,235.698787 211.028987,235.975323 208.779075,235.998424 L187.519365,236 C185.041662,236 184.038994,235.721523 183.061216,235.198602 C182.083439,234.675681 181.316073,233.908315 180.793152,232.930537 C180.32229,232.050101 180.049623,231.149485 180,229.169961 L190.057754,218 L208.464142,218 Z M129.934,217 L139.991754,228.169961 C139.94213,230.149485 139.669464,231.050101 139.198602,231.930537 C138.675681,232.908315 137.908315,233.675681 136.930537,234.198602 C135.995271,234.698787 135.037233,234.975323 132.787321,234.998424 L132.472389,235 L111.212679,234.998424 C108.962767,234.975323 108.004729,234.698787 107.069463,234.198602 C106.091685,233.675681 105.324319,232.908315 104.801398,231.930537 C104.301213,230.995271 104.024677,230.037233 104.001576,227.787321 L104,227.472389 L104.001576,224.212679 C104.024677,221.962767 104.301213,221.004729 104.801398,220.069463 C105.324319,219.091685 106.091685,218.324319 107.069463,217.801398 C108.004729,217.301213 108.962767,217.024677 111.212679,217.001576 L111.527611,217 L129.934,217 Z M160,178 C173.254834,178 184,188.745166 184,202 C184,215.254834 173.254834,226 160,226 C146.745166,226 136,215.254834 136,202 C136,188.745166 146.745166,178 160,178 Z M187.519365,169 L208.779075,169.001576 C211.028987,169.024677 211.987025,169.301213 212.922291,169.801398 C213.900068,170.324319 214.667434,171.091685 215.190355,172.069463 C215.690541,173.004729 215.967076,173.962767 215.990177,176.212679 L215.991754,176.527611 L215.990177,179.787321 C215.967076,182.037233 215.690541,182.995271 215.190355,183.930537 C214.667434,184.908315 213.900068,185.675681 212.922291,186.198602 C211.987025,186.698787 211.028987,186.975323 208.779075,186.998424 L208.464142,187 L190.057754,187 L180,175.830039 C180.049623,173.850515 180.32229,172.949899 180.793152,172.069463 C181.316073,171.091685 182.083439,170.324319 183.061216,169.801398 C184.038994,169.278477 185.041662,169 187.519365,169 Z M132.472389,168 C134.950092,168 135.952759,168.278477 136.930537,168.801398 C137.908315,169.324319 138.675681,170.091685 139.198602,171.069463 C139.669464,171.949899 139.94213,172.850515 139.991754,174.830039 L129.934,186 L111.527611,186 C109.049908,186 108.047241,185.721523 107.069463,185.198602 C106.091685,184.675681 105.324319,183.908315 104.801398,182.930537 C104.301213,181.995271 104.024677,181.037233 104.001576,178.787321 L104,175.527611 C104,173.049908 104.278477,172.047241 104.801398,171.069463 C105.324319,170.091685 106.091685,169.324319 107.069463,168.801398 C108.004729,168.301213 108.962767,168.024677 111.212679,168.001576 L132.472389,168 Z M118,137 C122.418278,137 126,140.581722 126,145 C126,149.418278 122.418278,153 118,153 C113.581722,153 110,149.418278 110,145 C110,140.581722 113.581722,137 118,137 Z M146,137 C150.418278,137 154,140.581722 154,145 C154,149.418278 150.418278,153 146,153 C141.581722,153 138,149.418278 138,145 C138,140.581722 141.581722,137 146,137 Z M174,137 C178.418278,137 182,140.581722 182,145 C182,149.418278 178.418278,153 174,153 C169.581722,153 166,149.418278 166,145 C166,140.581722 169.581722,137 174,137 Z M202,137 C206.418278,137 210,140.581722 210,145 C210,149.418278 206.418278,153 202,153 C197.581722,153 194,149.418278 194,145 C194,140.581722 197.581722,137 202,137 Z M160,24 C187.061953,24 209,45.9380473 209,73 C209,100.061953 187.061953,122 160,122 C132.938047,122 111,100.061953 111,73 C111,45.9380473 132.938047,24 160,24 Z M160,56 C150.611159,56 143,63.6111593 143,73 C143,82.3888407 150.611159,90 160,90 C169.388841,90 177,82.3888407 177,73 C177,63.6111593 169.388841,56 160,56 Z" id="Combined-Shape" fill="#000000"></path>
        <path d="M143.772461,205.399414 C144.264648,205.399414 144.551758,205.084961 144.551758,204.551758 L144.551758,201.981445 L146.513672,201.981445 C148.420898,201.981445 149.651367,200.839844 149.651367,198.987305 C149.651367,197.189453 148.427734,196 146.554688,196 L144.237305,196 C143.348633,196 143,196.334961 143,197.203125 L143,204.551758 C143,205.084961 143.287109,205.399414 143.772461,205.399414 Z M145.84375,200.716797 L144.551758,200.716797 L144.551758,197.285156 L146.404297,197.285156 C147.477539,197.285156 148.092773,197.914062 148.092773,199.000977 C148.092773,200.272461 147.470703,200.716797 145.84375,200.716797 Z M152.804688,205.399414 C153.290039,205.399414 153.570312,205.091797 153.570312,204.558594 L153.570312,201.051758 C153.570312,199.916992 154.09668,199.356445 155.128906,199.342773 C155.388672,199.335938 155.586914,199.294922 155.723633,199.199219 C155.887695,199.089844 155.969727,198.918945 155.969727,198.679688 C155.969727,198.454102 155.880859,198.269531 155.716797,198.160156 C155.580078,198.050781 155.381836,197.996094 155.142578,197.996094 C154.472656,197.996094 153.925781,198.344727 153.597656,199.02832 L153.542969,199.02832 L153.542969,198.80957 C153.522461,198.324219 153.262695,198.043945 152.811523,198.043945 C152.333008,198.043945 152.052734,198.351562 152.052734,198.884766 L152.052734,204.558594 C152.052734,205.091797 152.319336,205.399414 152.804688,205.399414 Z M160.975586,205.467773 C162.855469,205.467773 164.202148,204.27832 164.202148,202.193359 L164.202148,201.222656 C164.202148,199.171875 162.855469,197.96875 160.975586,197.96875 C159.088867,197.96875 157.742188,199.171875 157.742188,201.229492 L157.742188,202.193359 C157.742188,204.27832 159.088867,205.467773 160.975586,205.467773 Z M160.975586,204.244141 C159.943359,204.244141 159.293945,203.444336 159.293945,202.138672 L159.293945,201.297852 C159.293945,200.012695 159.943359,199.199219 160.975586,199.199219 C162.014648,199.199219 162.643555,200.012695 162.643555,201.297852 L162.643555,202.138672 C162.643555,203.444336 162.014648,204.244141 160.975586,204.244141 Z M169.713867,208.044922 C171.655273,208.044922 172.954102,207.087891 172.954102,205.125977 L172.954102,198.871094 C172.954102,198.317383 172.666992,198.030273 172.208984,198.030273 C171.785156,198.030273 171.498047,198.283203 171.484375,198.795898 L171.484375,199.199219 L171.40918,199.199219 C171.15625,198.570312 170.404297,197.996094 169.310547,197.996094 C167.738281,197.996094 166.541992,199.165039 166.541992,201.120117 L166.541992,202.111328 C166.541992,204.066406 167.738281,205.228516 169.324219,205.228516 C170.349609,205.228516 171.087891,204.729492 171.368164,204.09375 L171.443359,204.09375 L171.443359,205.078125 C171.443359,206.185547 170.800781,206.787109 169.679688,206.787109 C168.866211,206.787109 168.415039,206.46582 168.121094,206.233398 C167.895508,206.048828 167.738281,205.884766 167.451172,205.884766 C167.068359,205.884766 166.822266,206.130859 166.822266,206.493164 C166.822266,206.90332 167.143555,207.299805 167.601562,207.566406 C168.121094,207.874023 168.852539,208.044922 169.713867,208.044922 Z M169.816406,204.025391 C168.791016,204.025391 168.09375,203.211914 168.09375,201.974609 L168.09375,201.311523 C168.09375,200.067383 168.75,199.24707 169.782227,199.24707 C170.855469,199.24707 171.443359,200.128906 171.443359,201.154297 L171.443359,202.152344 C171.443359,203.157227 170.869141,204.025391 169.816406,204.025391 Z M176.695312,205.474609 C177.208008,205.474609 177.631836,205.050781 177.631836,204.53125 C177.631836,204.018555 177.208008,203.594727 176.695312,203.594727 C176.182617,203.594727 175.758789,204.018555 175.758789,204.53125 C175.758789,205.050781 176.182617,205.474609 176.695312,205.474609 Z" id="Prog." fill="#FFFFFF" fill-rule="nonzero"></path>
        <path d="M116.486328,261.713867 C118.625977,261.713867 119.986328,260.626953 119.986328,258.890625 C119.986328,257.543945 119.207031,256.737305 117.511719,256.313477 L116.041992,255.944336 C115.173828,255.725586 114.729492,255.274414 114.729492,254.645508 C114.729492,253.825195 115.426758,253.298828 116.5,253.298828 C117.375,253.298828 118.06543,253.702148 118.43457,254.385742 C118.605469,254.65918 118.817383,254.782227 119.104492,254.782227 C119.487305,254.782227 119.74707,254.522461 119.74707,254.139648 C119.74707,253.702148 119.500977,253.244141 119.063477,252.847656 C118.461914,252.300781 117.525391,252 116.472656,252 C114.469727,252 113.143555,253.09375 113.143555,254.761719 C113.143555,256.060547 113.922852,256.901367 115.481445,257.28418 L116.958008,257.666992 C117.983398,257.926758 118.448242,258.364258 118.448242,259.061523 C118.448242,259.916016 117.750977,260.408203 116.568359,260.408203 C115.666016,260.408203 114.961914,260.073242 114.456055,259.40332 C114.162109,259.03418 113.936523,258.897461 113.642578,258.897461 C113.273438,258.897461 113,259.18457 113,259.594727 C113,259.991211 113.239258,260.421875 113.697266,260.838867 C114.298828,261.392578 115.324219,261.713867 116.486328,261.713867 Z M125.183594,261.59082 C125.668945,261.59082 125.949219,261.283203 125.949219,260.75 L125.949219,253.114258 C125.949219,252.526367 125.566406,252.123047 125.005859,252.123047 C124.677734,252.123047 124.356445,252.246094 123.891602,252.574219 L122.599609,253.503906 C122.27832,253.722656 122.12793,253.948242 122.12793,254.194336 C122.12793,254.515625 122.374023,254.768555 122.695312,254.768555 C122.866211,254.768555 123.030273,254.707031 123.276367,254.536133 L124.376953,253.75 L124.417969,253.75 L124.417969,260.75 C124.417969,261.276367 124.705078,261.59082 125.183594,261.59082 Z" id="S1" fill="#FFFFFF" fill-rule="nonzero"></path>
    </g>
</svg>