<?xml version="1.0" encoding="UTF-8"?>
<svg width="320px" height="320px" viewBox="0 0 320 320" version="1.1" xmlns="http://www.w3.org/2000/svg" xmlns:xlink="http://www.w3.org/1999/xlink">
    <title>images / 9101SAC-HP-Switch</title>
    <g id="images-/-9101SAC-HP-Switch" stroke="none" stroke-width="1" fill="none" fill-rule="evenodd">
        <path d="M239.292929,10 L310,79 L310,261 L260.505051,310 L60.5050505,310 L10,261 L10,79 L79.6969697,10 L239.292929,10 Z M234.006734,20 L85.0505051,20 L76.143,28.817 L105.426407,58.1005051 L53.1005051,110.426407 L23.554,80.88 L20,84.4 L20,254.266667 L60,293.075 L60,256 L226,256 L226,300 L253.804714,300 L300,254.266667 L300,84.4 L234.006734,20 Z M220.35093,269.92511 L202.221255,285.137657 C204.316022,286.922628 207.032194,288 210,288 C216.627417,288 222,282.627417 222,276 C222,273.783293 221.398949,271.706969 220.35093,269.92511 Z M88.4141941,270.033977 L70.3168517,285.218265 C72.3983481,286.955013 75.0771392,288 78,288 C84.627417,288 90,282.627417 90,276 C90,273.828288 89.4231019,271.791317 88.4141941,270.033977 Z M99,276 C99,282.627417 104.372583,288 111,288 C113.216707,288 115.293031,287.398949 117.07489,286.35093 L101.862343,268.221255 C100.077372,270.316022 99,273.032194 99,276 Z M132,276 C132,282.627417 137.372583,288 144,288 C146.216707,288 148.293031,287.398949 150.07489,286.35093 L134.862343,268.221255 C133.077372,270.316022 132,273.032194 132,276 Z M187.414194,270.033977 L169.316852,285.218265 C171.398348,286.955013 174.077139,288 177,288 C183.627417,288 189,282.627417 189,276 C189,273.828288 188.423102,271.791317 187.414194,270.033977 Z M111,264 C108.783293,264 106.706969,264.601051 104.92511,265.64907 L120.137657,283.778745 C121.922628,281.683978 123,278.967806 123,276 C123,269.372583 117.627417,264 111,264 Z M144,264 C141.783293,264 139.706969,264.601051 137.92511,265.64907 L153.137657,283.778745 C154.922628,281.683978 156,278.967806 156,276 C156,269.372583 150.627417,264 144,264 Z M177,264 C170.372583,264 165,269.372583 165,276 C165,278.261168 165.625403,280.376265 166.71267,282.181751 L184.873154,266.943635 C182.765899,265.110134 180.012592,264 177,264 Z M78,264 C71.372583,264 66,269.372583 66,276 C66,278.261168 66.6254034,280.376265 67.7126696,282.181751 L85.8731541,266.943635 C83.7658988,265.110134 81.0125922,264 78,264 Z M210,264 C203.372583,264 198,269.372583 198,276 C198,278.216707 198.601051,280.293031 199.64907,282.07489 L217.778745,266.862343 C215.683978,265.077372 212.967806,264 210,264 Z M228.808587,33.4887291 C235.217654,33.4887291 241.375772,35.9498677 246.016478,40.3534385 L246.345359,40.6712758 L286.02859,79.7293693 C290.694597,84.3218711 293.368527,90.556726 293.487659,97.0905092 L293.491819,97.5468226 L293.491819,221 C293.491819,234.669048 282.521676,245.775881 268.905239,245.996651 L268.491819,246 L50.2207407,246 C36.5516931,246 25.4448597,235.029857 25.22409,221.413421 L25.2207407,221 L25.2207407,156.042725 C25.2207407,153.281301 27.4593169,151.042725 30.2207407,151.042725 C32.9094954,151.042725 35.1025588,153.165031 35.2161212,155.825835 L35.2207407,156.042725 L35.2207407,221 C35.2207407,229.179407 41.767527,235.82973 49.9069125,235.996782 L50.2207407,236 L268.491819,236 C276.671226,236 283.321549,229.453214 283.488601,221.313828 L283.491819,221 L283.491819,97.5468226 C283.491819,93.6612778 281.984348,89.9328774 279.296168,87.1417161 L279.013882,86.8563506 L239.33065,47.7982571 C236.618289,45.1286239 232.996449,43.5932671 229.201731,43.4938762 L228.808587,43.4887291 L163,43.4887291 C160.238576,43.4887291 158,41.2501529 158,38.4887291 C158,35.7999744 160.122307,33.606911 162.78311,33.4933487 L163,33.4887291 L228.808587,33.4887291 Z M121.179869,155.163574 C121.833678,155.163574 122.443053,155.315918 122.919127,155.601562 C123.369811,155.861816 123.636412,156.22998 123.636412,156.591797 C123.636412,156.915527 123.414244,157.118652 123.077818,157.118652 C122.881041,157.118652 122.741393,157.055176 122.4494,156.807617 C121.986021,156.388672 121.617857,156.236328 121.110045,156.236328 C120.386412,156.236328 119.948424,156.572754 119.948424,157.105957 C119.948424,157.501628 120.188445,157.753286 120.707601,157.904935 L120.856139,157.943848 L122.074889,158.223145 C123.2619,158.496094 123.814146,159.080078 123.814146,160.057617 C123.814146,161.333496 122.792174,162.126953 121.12274,162.126953 C120.41815,162.126953 119.757994,161.974609 119.262877,161.70166 C118.76776,161.428711 118.488463,161.054199 118.488463,160.647949 C118.488463,160.305176 118.710631,160.083008 119.053404,160.083008 C119.250182,160.083008 119.402525,160.171875 119.662779,160.419434 C120.113463,160.844727 120.589537,161.047852 121.198912,161.047852 C121.966979,161.047852 122.443053,160.717773 122.443053,160.178223 C122.443053,159.788371 122.176363,159.489193 121.66743,159.339362 L121.522643,159.302246 L120.367369,159.035645 C119.154967,158.762695 118.583678,158.166016 118.583678,157.201172 C118.583678,155.969727 119.599303,155.163574 121.179869,155.163574 Z M114.586482,155.163574 C116.243221,155.163574 117.417537,156.356934 117.417537,158.007324 C117.417537,158.700488 117.262711,158.945762 116.78791,158.975384 L116.681209,158.978516 L113.101131,158.978516 L113.101131,159.295898 C113.101131,160.330566 113.748592,160.990723 114.80865,160.990723 C115.348201,160.990723 115.748104,160.838379 116.071834,160.546387 C116.401912,160.26709 116.503475,160.197266 116.725643,160.197266 C117.03033,160.197266 117.239803,160.419434 117.239803,160.743164 C117.239803,160.990723 117.087459,161.257324 116.827205,161.466797 C116.395564,161.879395 115.608455,162.126953 114.726131,162.126953 C112.902086,162.126953 111.75091,161.076335 111.67101,159.327975 L111.666561,159.130859 L111.666561,158.178711 C111.666561,156.388672 112.853572,155.163574 114.586482,155.163574 Z M127.84308,155.163574 C129.499818,155.163574 130.674135,156.356934 130.674135,158.007324 C130.674135,158.700488 130.519308,158.945762 130.044507,158.975384 L129.937807,158.978516 L126.357729,158.978516 L126.357729,159.295898 C126.357729,160.330566 127.005189,160.990723 128.065248,160.990723 C128.604799,160.990723 129.004701,160.838379 129.328432,160.546387 C129.65851,160.26709 129.760072,160.197266 129.98224,160.197266 C130.286928,160.197266 130.4964,160.419434 130.4964,160.743164 C130.4964,160.990723 130.344057,161.257324 130.083803,161.466797 C129.652162,161.879395 128.865053,162.126953 127.982729,162.126953 C126.158684,162.126953 125.007508,161.076335 124.927607,159.327975 L124.923158,159.130859 L124.923158,158.178711 C124.923158,156.388672 126.11017,155.163574 127.84308,155.163574 Z M133.26215,153.583008 C133.66364,153.583008 133.910449,153.817695 133.948796,154.228397 L133.954045,154.344727 L133.954045,155.328613 L134.728459,155.328613 C135.122014,155.328613 135.344182,155.538086 135.344182,155.893555 C135.344182,156.207764 135.159084,156.413999 134.839791,156.452104 L134.728459,156.458496 L133.96674,156.458496 L133.96674,160.114746 C133.96674,160.774902 134.131779,160.978027 134.690373,160.978027 C134.868107,160.978027 134.988713,160.958984 135.128361,160.958984 C135.394963,160.958984 135.585393,161.136719 135.585393,161.416016 C135.585393,161.631836 135.48383,161.815918 135.274357,161.936523 C135.064885,162.057129 134.760197,162.120605 134.3476,162.120605 C133.133265,162.120605 132.59843,161.638568 132.554218,160.391178 L132.551213,160.216309 L132.551213,156.458496 L132.144963,156.458496 C131.757756,156.458496 131.522893,156.242676 131.522893,155.893555 C131.522893,155.573633 131.70799,155.371968 132.031911,155.334834 L132.144963,155.328613 L132.576604,155.328613 L132.576604,154.344727 C132.576604,153.862305 132.824162,153.583008 133.26215,153.583008 Z M107.567803,153.335449 C109.351494,153.335449 110.462334,154.344727 110.462334,155.957031 C110.462334,157.002528 109.945033,157.856847 109.074485,158.271263 L108.907158,158.34375 L110.252861,160.870117 C110.335381,161.016113 110.379814,161.212891 110.379814,161.371582 C110.379814,161.758789 110.075127,162.031738 109.675225,162.031738 C109.338164,162.031738 109.139927,161.898057 108.927807,161.524262 L108.856377,161.390625 L107.478936,158.673828 L105.663506,158.673828 L105.663506,161.276367 C105.663506,161.771484 105.396904,162.063477 104.946221,162.063477 C104.527275,162.063477 104.268344,161.818122 104.228098,161.395863 L104.222588,161.276367 L104.222588,154.490723 C104.222588,153.734955 104.535012,153.380875 105.254005,153.339567 L105.403252,153.335449 L107.567803,153.335449 Z M114.605525,156.293457 C113.748239,156.293457 113.168389,156.899286 113.106607,157.811489 L113.101131,157.975586 L113.101131,157.994629 L116.052791,157.994629 L116.052791,157.975586 C116.052791,156.953613 115.48785,156.293457 114.605525,156.293457 Z M127.862123,156.293457 C127.004837,156.293457 126.424986,156.899286 126.363204,157.811489 L126.357729,157.975586 L126.357729,157.994629 L129.309389,157.994629 L129.309389,157.975586 C129.309389,156.953613 128.744447,156.293457 127.862123,156.293457 Z M107.377373,154.547852 L105.663506,154.547852 L105.663506,157.537598 L107.345635,157.537598 C108.418389,157.537598 109.015068,157.01709 109.015068,156.058594 C109.015068,155.100098 108.405693,154.547852 107.377373,154.547852 Z M119,130 C124.522847,130 129,134.477153 129,140 C129,145.522847 124.522847,150 119,150 C113.477153,150 109,145.522847 109,140 C109,134.477153 113.477153,130 119,130 Z M180,130 C185.522847,130 190,134.477153 190,140 C190,145.522847 185.522847,150 180,150 C174.477153,150 170,145.522847 170,140 C170,134.477153 174.477153,130 180,130 Z M57.4007717,68.6128283 L54.663522,99.9145652 C62.718366,99.0824803 69,92.2748173 69,84 C69,76.6897119 64.0974189,70.524483 57.4007717,68.6128283 Z M51.4259,68.0764501 C43.3281731,68.8671964 37,75.6945862 37,84 C37,91.3412284 41.9441687,97.5276844 48.6843538,99.4112157 L51.4259,68.0764501 Z M83.3156462,42.5887843 L80.5741,73.9235499 C88.6718269,73.1328036 95,66.3054138 95,58 C95,50.6587716 90.0558313,44.4723156 83.3156462,42.5887843 Z M77.336478,42.0854348 C69.281634,42.9175197 63,49.7251827 63,58 C63,65.3102881 67.9025811,71.475517 74.5992283,73.3871717 L77.336478,42.0854348 Z" id="Combined-Shape" fill="#000000" fill-rule="nonzero"></path>
    </g>
</svg>