<?xml version="1.0" encoding="UTF-8"?>
<svg width="320px" height="320px" viewBox="0 0 320 320" version="1.1" xmlns="http://www.w3.org/2000/svg" xmlns:xlink="http://www.w3.org/1999/xlink">
    <title>images / ZV9001K12_DIM_Z4</title>
    <g id="images-/-ZV9001K12_DIM_Z4" stroke="none" stroke-width="1" fill="none" fill-rule="evenodd">
        <path d="M193,0 C201.284271,-1.52179594e-15 208,6.71572875 208,15 L208,305 C208,313.284271 201.284271,320 193,320 L127,320 C118.715729,320 112,313.284271 112,305 L112,15 C112,6.71572875 118.715729,1.52179594e-15 127,0 L193,0 Z M188,10 L132,10 C126.57076,10 122.152068,14.3266708 122.003842,19.7200952 L122,20 L122,300 C122,305.42924 126.326671,309.847932 131.720095,309.996158 L132,310 L188,310 C193.42924,310 197.847932,305.673329 197.996158,300.279905 L198,300 L198,20 C198,14.4771525 193.522847,10 188,10 Z M148,220 C152.418278,220 156,223.581722 156,228 C156,232.418278 152.418278,236 148,236 L136,236 C131.581722,236 128,232.418278 128,228 C128,223.581722 131.581722,220 136,220 L148,220 Z M184,220 C188.418278,220 192,223.581722 192,228 C192,232.418278 188.418278,236 184,236 L172,236 C167.581722,236 164,232.418278 164,228 C164,223.581722 167.581722,220 172,220 L184,220 Z M148,188 C152.418278,188 156,191.581722 156,196 C156,200.418278 152.418278,204 148,204 L136,204 C131.581722,204 128,200.418278 128,196 C128,191.581722 131.581722,188 136,188 L148,188 Z M184,188 C188.418278,188 192,191.581722 192,196 C192,200.418278 188.418278,204 184,204 L172,204 C167.581722,204 164,200.418278 164,196 C164,191.581722 167.581722,188 172,188 L184,188 Z M148,156 C152.418278,156 156,159.581722 156,164 C156,168.418278 152.418278,172 148,172 L136,172 C131.581722,172 128,168.418278 128,164 C128,159.581722 131.581722,156 136,156 L148,156 Z M184,156 C188.418278,156 192,159.581722 192,164 C192,168.418278 188.418278,172 184,172 L172,172 C167.581722,172 164,168.418278 164,164 C164,159.581722 167.581722,156 172,156 L184,156 Z M148,124 C152.418278,124 156,127.581722 156,132 C156,136.418278 152.418278,140 148,140 L136,140 C131.581722,140 128,136.418278 128,132 C128,127.581722 131.581722,124 136,124 L148,124 Z M184,124 C188.418278,124 192,127.581722 192,132 C192,136.418278 188.418278,140 184,140 L172,140 C167.581722,140 164,136.418278 164,132 C164,127.581722 167.581722,124 172,124 L184,124 Z M148,92 C152.418278,92 156,95.581722 156,100 C156,104.418278 152.418278,108 148,108 L136,108 C131.581722,108 128,104.418278 128,100 C128,95.581722 131.581722,92 136,92 L148,92 Z M184,92 C188.418278,92 192,95.581722 192,100 C192,104.418278 188.418278,108 184,108 L172,108 C167.581722,108 164,104.418278 164,100 C164,95.581722 167.581722,92 172,92 L184,92 Z M160,54 C165.522847,54 170,58.4771525 170,64 C170,69.5228475 165.522847,74 160,74 C154.477153,74 150,69.5228475 150,64 C150,58.4771525 154.477153,54 160,54 Z M160,18 C166.627417,18 172,23.372583 172,30 C172,36.627417 166.627417,42 160,42 C153.372583,42 148,36.627417 148,30 C148,23.372583 153.372583,18 160,18 Z" id="Combined-Shape" fill="#000000"></path>
    </g>
</svg>