<?xml version="1.0" encoding="UTF-8"?>
<svg width="320px" height="320px" viewBox="0 0 320 320" version="1.1" xmlns="http://www.w3.org/2000/svg" xmlns:xlink="http://www.w3.org/1999/xlink">
    <title>images / light</title>
    <g id="images-/-light" stroke="none" stroke-width="1" fill="none" fill-rule="evenodd">
        <path d="M194,290.5 C197.865993,290.5 201,293.634007 201,297.5 C201,301.365993 197.865993,304.5 194,304.5 L128,304.5 C124.134007,304.5 121,301.365993 121,297.5 C121,293.634007 124.134007,290.5 128,290.5 L194,290.5 Z M194,262.5 C197.865993,262.5 201,265.634007 201,269.5 C201,273.365993 197.865993,276.5 194,276.5 L128,276.5 C124.134007,276.5 121,273.365993 121,269.5 C121,265.634007 124.134007,262.5 128,262.5 L194,262.5 Z M160,88.5 C204.18278,88.5 240,124.31722 240,168.5 C240,212.68278 204.18278,248.5 160,248.5 C115.81722,248.5 80,212.68278 80,168.5 C80,124.31722 115.81722,88.5 160,88.5 Z M160,102.5 C123.549207,102.5 94,132.049207 94,168.5 C94,204.950793 123.549207,234.5 160,234.5 C196.450793,234.5 226,204.950793 226,168.5 C226,132.049207 196.450793,102.5 160,102.5 Z M309.5,165 C312.261424,165 314.5,167.238576 314.5,170 C314.5,172.761424 312.261424,175 309.5,175 L269.5,175 C266.738576,175 264.5,172.761424 264.5,170 C264.5,167.238576 266.738576,165 269.5,165 L309.5,165 Z M50.5,165 C53.2614237,165 55.5,167.238576 55.5,170 C55.5,172.761424 53.2614237,175 50.5,175 L10.5,175 C7.73857625,175 5.5,172.761424 5.5,170 C5.5,167.238576 7.73857625,165 10.5,165 L50.5,165 Z M293.800925,92.75 C295.181637,95.1414631 294.362261,98.1994151 291.970798,99.580127 L257.329782,119.580127 C254.938319,120.960839 251.880367,120.141463 250.499655,117.75 C249.118943,115.358537 249.938319,112.300585 252.329782,110.919873 L286.970798,90.919873 C289.362261,89.5391611 292.420213,90.3585369 293.800925,92.75 Z M33.0292021,90.919873 L67.6702183,110.919873 C70.0616814,112.300585 70.8810572,115.358537 69.5003453,117.75 C68.1196334,120.141463 65.0616814,120.960839 62.6702183,119.580127 L28.0292021,99.580127 C25.637739,98.1994151 24.8183632,95.1414631 26.1990751,92.75 C27.579787,90.3585369 30.637739,89.5391611 33.0292021,90.919873 Z M237.25,36.1990751 C239.641463,37.579787 240.460839,40.637739 239.080127,43.0292021 L219.080127,77.6702183 C217.699415,80.0616814 214.641463,80.8810572 212.25,79.5003453 C209.858537,78.1196334 209.039161,75.0616814 210.419873,72.6702183 L230.419873,38.0292021 C231.800585,35.637739 234.858537,34.8183632 237.25,36.1990751 Z M89.580127,38.0292021 L109.580127,72.6702183 C110.960839,75.0616814 110.141463,78.1196334 107.75,79.5003453 C105.358537,80.8810572 102.300585,80.0616814 100.919873,77.6702183 L80.919873,43.0292021 C79.5391611,40.637739 80.3585369,37.579787 82.75,36.1990751 C85.1414631,34.8183632 88.1994151,35.637739 89.580127,38.0292021 Z M160,15.5 C162.761424,15.5 165,17.7385763 165,20.5 L165,60.5 C165,63.2614237 162.761424,65.5 160,65.5 C157.238576,65.5 155,63.2614237 155,60.5 L155,20.5 C155,17.7385763 157.238576,15.5 160,15.5 Z" id="Combined-Shape" fill="#000000"></path>
    </g>
</svg>