<?xml version="1.0" encoding="UTF-8"?>
<svg width="320px" height="320px" viewBox="0 0 320 320" version="1.1" xmlns="http://www.w3.org/2000/svg" xmlns:xlink="http://www.w3.org/1999/xlink">
    <title>images / easylighting_icon</title>
    <g id="images-/-easylighting_icon" stroke="none" stroke-width="1" fill="none" fill-rule="evenodd">
        <path d="M194.5,290 C198.365993,290 201.5,293.134007 201.5,297 C201.5,300.865993 198.365993,304 194.5,304 L128.5,304 C124.634007,304 121.5,300.865993 121.5,297 C121.5,293.134007 124.634007,290 128.5,290 L194.5,290 Z M194.5,262 C198.365993,262 201.5,265.134007 201.5,269 C201.5,272.865993 198.365993,276 194.5,276 L128.5,276 C124.634007,276 121.5,272.865993 121.5,269 C121.5,265.134007 124.634007,262 128.5,262 L194.5,262 Z M160.5,88 C204.68278,88 240.5,123.81722 240.5,168 C240.5,212.18278 204.68278,248 160.5,248 C116.31722,248 80.5,212.18278 80.5,168 C80.5,123.81722 116.31722,88 160.5,88 Z M160.5,102 C124.049207,102 94.5,131.549207 94.5,168 C94.5,204.450793 124.049207,234 160.5,234 C196.950793,234 226.5,204.450793 226.5,168 C226.5,131.549207 196.950793,102 160.5,102 Z M310,164.5 C312.761424,164.5 315,166.738576 315,169.5 C315,172.261424 312.761424,174.5 310,174.5 L270,174.5 C267.238576,174.5 265,172.261424 265,169.5 C265,166.738576 267.238576,164.5 270,164.5 L310,164.5 Z M51,164.5 C53.7614237,164.5 56,166.738576 56,169.5 C56,172.261424 53.7614237,174.5 51,174.5 L11,174.5 C8.23857625,174.5 6,172.261424 6,169.5 C6,166.738576 8.23857625,164.5 11,164.5 L51,164.5 Z M294.300925,92.25 C295.681637,94.6414631 294.862261,97.6994151 292.470798,99.080127 L257.829782,119.080127 C255.438319,120.460839 252.380367,119.641463 250.999655,117.25 C249.618943,114.858537 250.438319,111.800585 252.829782,110.419873 L287.470798,90.419873 C289.862261,89.0391611 292.920213,89.8585369 294.300925,92.25 Z M33.5292021,90.419873 L68.1702183,110.419873 C70.5616814,111.800585 71.3810572,114.858537 70.0003453,117.25 C68.6196334,119.641463 65.5616814,120.460839 63.1702183,119.080127 L28.5292021,99.080127 C26.137739,97.6994151 25.3183632,94.6414631 26.6990751,92.25 C28.079787,89.8585369 31.137739,89.0391611 33.5292021,90.419873 Z M237.75,35.6990751 C240.141463,37.079787 240.960839,40.137739 239.580127,42.5292021 L219.580127,77.1702183 C218.199415,79.5616814 215.141463,80.3810572 212.75,79.0003453 C210.358537,77.6196334 209.539161,74.5616814 210.919873,72.1702183 L230.919873,37.5292021 C232.300585,35.137739 235.358537,34.3183632 237.75,35.6990751 Z M90.080127,37.5292021 L110.080127,72.1702183 C111.460839,74.5616814 110.641463,77.6196334 108.25,79.0003453 C105.858537,80.3810572 102.800585,79.5616814 101.419873,77.1702183 L81.419873,42.5292021 C80.0391611,40.137739 80.8585369,37.079787 83.25,35.6990751 C85.6414631,34.3183632 88.6994151,35.137739 90.080127,37.5292021 Z M160.5,15 C163.261424,15 165.5,17.2385763 165.5,20 L165.5,60 C165.5,62.7614237 163.261424,65 160.5,65 C157.738576,65 155.5,62.7614237 155.5,60 L155.5,20 C155.5,17.2385763 157.738576,15 160.5,15 Z" id="Combined-Shape" fill="#000000"></path>
    </g>
</svg>