<?xml version="1.0" encoding="UTF-8"?>
<svg width="30px" height="30px" viewBox="0 0 30 30" version="1.1" xmlns="http://www.w3.org/2000/svg" xmlns:xlink="http://www.w3.org/1999/xlink">
    <title>images / temperature_icon</title>
    <g id="images-/-temperature_icon" stroke="none" stroke-width="1" fill="none" fill-rule="evenodd">
        <path d="M15.4377646,1 C17.4232196,1 19.0447437,2.62152408 19.0447437,4.60697908 L19.0447437,4.60697908 L19.0447437,17.6537322 C20.626609,18.8605742 21.8840443,20.5305935 21.8869489,22.5505411 L21.8869489,22.5505411 L21.8869489,22.5622295 C21.8869489,26.1113509 18.9868918,29 15.4377646,29 C11.8886433,29 9,26.1113567 9,22.5622295 L9,22.5622295 L9,22.5505411 C9.00291042,20.530839 10.249271,18.8605917 11.8307914,17.6537322 L11.8307914,17.6537322 L11.8307914,4.60697908 C11.8307914,2.62152408 13.4523096,1 15.4377646,1 Z M15.4378114,2.54095573 C14.2822407,2.54095573 13.3832077,3.45141423 13.3832077,4.60697908 L13.3832077,4.60697908 L13.3832077,18.0988918 L12.9950934,18.3271669 C11.481208,19.2012042 10.543498,20.8138626 10.5409791,22.5619373 C10.5409791,25.2753886 12.7243426,27.4587521 15.437788,27.4587521 C18.1512393,27.4587521 20.3346028,25.2753886 20.3346028,22.5619373 C20.3320839,20.8138626 19.4057876,19.2012042 17.8919023,18.3271669 L17.8919023,18.3271669 L17.503788,18.0988918 L17.503788,4.60697908 C17.503788,3.45141423 16.5933237,2.54095573 15.4377646,2.54095573 Z M16.2139523,9.21767862 L16.2140301,19.3453625 C17.6975403,19.694639 18.8018082,21.0268566 18.8018082,22.6169898 C18.8018082,24.4732181 17.2970378,25.9779885 15.4408095,25.9779885 C13.5845811,25.9779885 12.0798108,24.4732181 12.0798108,22.6169898 C12.0798108,21.0269648 13.1839285,19.6948202 14.6672863,19.3454338 L14.6676706,9.21767862 L16.2139523,9.21767862 Z" id="Combined-Shape" fill="#000000" fill-rule="nonzero"></path>
    </g>
</svg>