<?xml version="1.0" encoding="UTF-8"?>
<svg width="320px" height="320px" viewBox="0 0 320 320" version="1.1" xmlns="http://www.w3.org/2000/svg" xmlns:xlink="http://www.w3.org/1999/xlink">
    <title>images / ZGRC_KEY_037</title>
    <g id="images-/-ZGRC_KEY_037" stroke="none" stroke-width="1" fill="none" fill-rule="evenodd">
        <path d="M181,198 C185.970563,198 190,202.029437 190,207 C190,211.970563 185.970563,216 181,216 L139,216 C134.029437,216 130,211.970563 130,207 C130,202.029437 134.029437,198 139,198 L181,198 Z M181,170 C185.970563,170 190,174.029437 190,179 C190,183.970563 185.970563,188 181,188 L139,188 C134.029437,188 130,183.970563 130,179 C130,174.029437 134.029437,170 139,170 L181,170 Z M181,142 C185.970563,142 190,146.029437 190,151 C190,155.970563 185.970563,160 181,160 L139,160 C134.029437,160 130,155.970563 130,151 C130,146.029437 134.029437,142 139,142 L181,142 Z M181,114 C185.970563,114 190,118.029437 190,123 C190,127.970563 185.970563,132 181,132 L139,132 C134.029437,132 130,127.970563 130,123 C130,118.029437 134.029437,114 139,114 L181,114 Z M181,86 C185.970563,86 190,90.0294373 190,95 C190,99.9705627 185.970563,104 181,104 L139,104 C134.029437,104 130,99.9705627 130,95 C130,90.0294373 134.029437,86 139,86 L181,86 Z M160,55 C164.970563,55 169,59.0294373 169,64 C169,68.9705627 164.970563,73 160,73 C155.029437,73 151,68.9705627 151,64 C151,59.0294373 155.029437,55 160,55 Z M160,21 C166.075132,21 171,25.9248678 171,32 C171,38.0751322 166.075132,43 160,43 C153.924868,43 149,38.0751322 149,32 C149,25.9248678 153.924868,21 160,21 Z" id="Combined-Shape" fill="#000000"></path>
        <path d="M208,0 C209.656854,-3.04359188e-16 211,1.34314575 211,3 L211,317 C211,318.656854 209.656854,320 208,320 L112,320 C110.343146,320 109,318.656854 109,317 L109,3 C109,1.34314575 110.343146,3.04359188e-16 112,0 L208,0 Z M200,10 L120,10 C119.447715,10 119,10.4477153 119,11 L119,11 L119,309 C119,309.552285 119.447715,310 120,310 L120,310 L200,310 C200.552285,310 201,309.552285 201,309 L201,309 L201,11 C201,10.4477153 200.552285,10 200,10 L200,10 Z" id="Combined-Shape" fill="#000000"></path>
    </g>
</svg>