<?xml version="1.0" encoding="UTF-8"?>
<svg width="320px" height="320px" viewBox="0 0 320 320" version="1.1" xmlns="http://www.w3.org/2000/svg" xmlns:xlink="http://www.w3.org/1999/xlink">
    <title>images / ZGRC_KEY_013_learnmode</title>
    <g id="images-/-ZGRC_KEY_013_learnmode" stroke="none" stroke-width="1" fill="none" fill-rule="evenodd">
        <path d="M181,198 C185.970563,198 190,202.029437 190,207 C190,211.970563 185.970563,216 181,216 L139,216 C134.029437,216 130,211.970563 130,207 C130,202.029437 134.029437,198 139,198 L181,198 Z M181,170 C185.970563,170 190,174.029437 190,179 C190,183.970563 185.970563,188 181,188 L139,188 C134.029437,188 130,183.970563 130,179 C130,174.029437 134.029437,170 139,170 L181,170 Z M181,142 C185.970563,142 190,146.029437 190,151 C190,155.970563 185.970563,160 181,160 L139,160 C134.029437,160 130,155.970563 130,151 C130,146.029437 134.029437,142 139,142 L181,142 Z M181,114 C185.970563,114 190,118.029437 190,123 C190,127.970563 185.970563,132 181,132 L139,132 C134.029437,132 130,127.970563 130,123 C130,118.029437 134.029437,114 139,114 L181,114 Z M181,86 C185.970563,86 190,90.0294373 190,95 C190,99.9705627 185.970563,104 181,104 L139,104 C134.029437,104 130,99.9705627 130,95 C130,90.0294373 134.029437,86 139,86 L181,86 Z M160,55 C164.970563,55 169,59.0294373 169,64 C169,68.9705627 164.970563,73 160,73 C155.029437,73 151,68.9705627 151,64 C151,59.0294373 155.029437,55 160,55 Z M160,21 C166.075132,21 171,25.9248678 171,32 C171,38.0751322 166.075132,43 160,43 C153.924868,43 149,38.0751322 149,32 C149,25.9248678 153.924868,21 160,21 Z" id="Combined-Shape" fill="#000000"></path>
        <path d="M208,0 C209.656854,-3.04359188e-16 211,1.34314575 211,3 L211,317 C211,318.656854 209.656854,320 208,320 L112,320 C110.343146,320 109,318.656854 109,317 L109,3 C109,1.34314575 110.343146,3.04359188e-16 112,0 L208,0 Z M200,10 L120,10 C119.447715,10 119,10.4477153 119,11 L119,11 L119,309 C119,309.552285 119.447715,310 120,310 L120,310 L200,310 C200.552285,310 201,309.552285 201,309 L201,309 L201,11 C201,10.4477153 200.552285,10 200,10 L200,10 Z" id="Combined-Shape" fill="#000000"></path>
        <rect id="Rectangle-Copy" fill="#000000" x="95" y="61" width="60" height="6"></rect>
        <rect id="Rectangle-Copy-5" fill="#000000" x="165" y="29" width="60" height="6"></rect>
        <polygon id="I" fill="#000000" fill-rule="nonzero" points="246.48 46 246.48 17.44 241.8 17.44 241.8 46"></polygon>
        <path d="M70.48,78.56 C74.84,78.56 78.28,77.16 80.8,74.36 C83.2,71.68 84.4,68.16 84.4,63.76 C84.4,59.36 83.2,55.8 80.8,53.12 C78.28,50.28 74.84,48.88 70.48,48.88 C66.08,48.88 62.64,50.28 60.16,53.16 C57.76,55.88 56.6,59.4 56.6,63.76 C56.6,68.08 57.76,71.6 60.16,74.32 C62.64,77.12 66.08,78.56 70.48,78.56 Z M70.48,74.44 C67.52,74.44 65.2,73.44 63.6,71.48 C62.04,69.56 61.28,67 61.28,63.76 C61.28,60.48 62.04,57.92 63.6,56 C65.24,54 67.52,53 70.48,53 C73.44,53 75.72,53.92 77.32,55.84 C78.88,57.76 79.68,60.4 79.68,63.76 C79.68,67.12 78.88,69.72 77.32,71.6 C75.72,73.48 73.44,74.44 70.48,74.44 Z" id="O" fill="#000000" fill-rule="nonzero"></path>
    </g>
</svg>