<?xml version="1.0" encoding="UTF-8"?>
<svg width="320px" height="320px" viewBox="0 0 320 320" version="1.1" xmlns="http://www.w3.org/2000/svg" xmlns:xlink="http://www.w3.org/1999/xlink">
    <title>images / LED Controller</title>
    <g id="images-/-LED-Controller" stroke="none" stroke-width="1" fill="none" fill-rule="evenodd">
        <path d="M320,109 L320,211 L0,211 L0,109 L320,109 Z M72,119 L10,119 L10.0007361,153.673981 C12.3652866,154.797595 14,157.207894 14,160 C14,162.792106 12.3652866,165.202405 10.0007361,166.326019 L10,201 L72,201 L72,119 Z M242,119 L78,119 L78,201 L242,201 L242,119 Z M310,119 L248,119 L248,201 L310,201 L310.000267,166.326496 C307.635176,165.203086 306,162.792501 306,160 C306,157.207499 307.635176,154.796914 310.000267,153.673504 L310,119 Z M25,153 C28.8659932,153 32,156.134007 32,160 C32,163.865993 28.8659932,167 25,167 C21.1340068,167 18,163.865993 18,160 C18,156.134007 21.1340068,153 25,153 Z M295,153 C298.865993,153 302,156.134007 302,160 C302,163.865993 298.865993,167 295,167 C291.134007,167 288,163.865993 288,160 C288,156.134007 291.134007,153 295,153 Z" id="Combined-Shape" fill="#000000"></path>
    </g>
</svg>