<svg width="320px" height="320px" viewBox="0 0 56 70" version="1.1" xmlns="http://www.w3.org/2000/svg" xmlns:xlink="http://www.w3.org/1999/xlink">
    <g id="页面-1" stroke="none" stroke-width="1" fill="none" fill-rule="evenodd" stroke-linecap="round">
        <g id="SR-ZG9030A-MW" transform="translate(-172.055500, -39.042700)" stroke="#000000" stroke-width="0.5">
            <g id="正面" transform="translate(173.217100, 39.966100)">
                <polygon id="路径" stroke-linejoin="bevel" points="54.3246 33.8893 54.2788 32.1517 54.096 30.3683 53.8216 28.6307 53.41 26.9388 52.907 25.2468 52.3126 23.6006 51.581 22.0002 50.7579 20.4453 49.8433 18.9363 48.8373 17.5188 47.694 16.147 46.5052 14.8208 45.2705 13.632 43.8987 12.4887 42.4811 11.437 41.0178 10.5224 39.463 9.6536 37.8626 8.9219 36.2164 8.2818 34.5244 7.7331 32.8325 7.3215 31.0948 7.0014 29.3572 6.8185 27.6195 6.727 25.8362 6.7728 24.0985 6.91 22.3609 7.1385 20.6232 7.5044 18.9313 8.0074 17.2851 8.6019 15.6389 9.2878 14.0841 10.0652 12.5751 10.9797 11.1118 11.9858 9.74 13.0374 8.4139 14.2264 7.1792 15.461 6.036 16.7872 4.9843 18.2047 4.024 19.668 3.1552 21.2227 2.3778 22.7775 1.6919 24.4237 1.1431 26.0699 0.6859 27.7619 0.3657 29.4994 0.1372 31.2371 0 33.0205 0 34.7582 0.1372 36.5416 0.3657 38.2792 0.6859 40.0169 1.1431 41.7088 1.6919 43.355 2.3778 45.0012 3.1552 46.556 4.024 48.1107 4.9843 49.574 6.036 50.9916 7.1792 52.3177 8.4139 53.5524 9.74 54.7412 11.1118 55.793 12.5751 56.799 14.0841 57.7136 15.6389 58.491 17.2851 59.1769 18.9313 59.7713 20.6232 60.2743 22.3609 60.6401 24.0985 60.8688 25.8362 61.006 27.6195 61.0516 29.3572 60.9603 31.0948 60.7773 32.8325 60.4572 34.5244 60.0457 36.2164 59.4969 37.8626 58.8567 39.463 58.1251 41.0178 57.2563 42.4811 56.3417 43.8987 55.2899 45.2705 54.1468 46.5052 52.9578 47.694 51.6318 48.8373 50.26 49.8433 48.8423 50.7579 47.3333 51.581 45.7786 52.3126 44.1781 52.907 42.5319 53.41 40.84 53.8216 39.1481 54.096 37.4104 54.2788 35.627"></polygon>
                <polygon id="路径" stroke-linejoin="bevel" points="54.2788 33.8893 54.2331 32.1517 54.0503 30.3683 53.7759 28.6307 53.3644 26.9388 52.8613 25.2468 52.2669 23.6006 51.5352 22.0002 50.7121 20.4453 49.7976 18.9821 48.7915 17.5188 47.694 16.147 46.5052 14.8666 45.2247 13.6777 43.8529 12.5345 42.4354 11.4827 40.972 10.5681 39.4173 9.6993 37.8626 8.9677 36.2164 8.3275 34.5244 7.7788 32.8325 7.3672 31.0948 7.0472 29.3572 6.8642 27.6195 6.7728 25.8362 6.8185 24.0985 6.9557 22.3609 7.1843 20.6232 7.5501 18.9313 8.0531 17.2851 8.6476 15.6846 9.3335 14.1298 10.1109 12.6209 11.0255 11.1575 11.9858 9.7857 13.0832 8.4595 14.2721 7.2249 15.5067 6.0817 16.8329 5.03 18.2504 4.0697 19.7137 3.2009 21.2227 2.4235 22.8233 1.7376 24.4237 1.1888 26.1157 0.7316 27.8076 0.4115 29.4994 0.1828 31.2371 0.0457 33.0205 0.0457 34.7582 0.1828 36.5416 0.4115 38.2792 0.7316 39.9712 1.1888 41.6631 1.7376 43.355 2.4235 44.9555 3.2009 46.556 4.0697 48.065 5.03 49.5282 6.0817 50.9459 7.2249 52.2719 8.4595 53.5066 9.7857 54.6955 11.1575 55.793 12.6209 56.7533 14.1298 57.6679 15.6846 58.4452 17.2851 59.1311 18.9313 59.7256 20.6232 60.2285 22.3609 60.5944 24.0985 60.8231 25.8362 60.9603 27.6195 61.006 29.3572 60.9145 31.0948 60.7316 32.8325 60.4115 34.5244 60 36.2164 59.4512 37.8626 58.811 39.4173 58.0794 40.972 57.2105 42.4354 56.296 43.8529 55.2443 45.2247 54.1011 46.5052 52.9121 47.694 51.6318 48.7915 50.26 49.7976 48.7966 50.7121 47.3333 51.5352 45.7786 52.2669 44.1781 52.8613 42.5319 53.3644 40.84 53.7759 39.1481 54.0503 37.4104 54.2331 35.627"></polygon>
                <polygon id="路径" stroke-linejoin="bevel" points="53.6844 33.8893 53.6387 32.1517 53.4557 30.414 53.1814 28.7221 52.7698 27.0301 52.2669 25.3839 51.6723 23.7377 50.9407 22.1373 50.1176 20.6283 49.203 19.165 48.1971 17.7475 47.0996 16.4213 45.9106 15.141 44.6303 13.952 43.3042 12.8545 41.8866 11.8486 40.4233 10.934 38.9143 10.1109 37.3139 9.3793 35.6677 8.7847 34.0215 8.2818 32.3295 7.8703 30.6376 7.5959 28.8999 7.4129 27.1623 7.3672 25.4246 7.4129 23.6869 7.5959 21.995 7.8703 20.3031 8.2818 18.6568 8.7847 17.0106 9.3793 15.4102 10.1109 13.9012 10.934 12.4379 11.8486 11.0203 12.8545 9.6942 13.952 8.4139 15.141 7.2249 16.4213 6.1274 17.7475 5.1215 19.165 4.2069 20.6283 3.3838 22.1373 2.6521 23.7377 2.0577 25.3839 1.5547 27.0301 1.1431 28.7221 0.8688 30.414 0.6859 32.1517 0.6401 33.8893 0.6859 35.627 0.8688 37.3647 1.1431 39.0566 1.5547 40.7485 2.0577 42.3947 2.6521 44.0409 3.3838 45.6414 4.2069 47.1504 5.1215 48.6138 6.1274 50.0313 7.2249 51.3574 8.4139 52.6378 9.6942 53.8267 11.0203 54.9242 12.4379 55.9302 13.9012 56.8448 15.4102 57.6679 17.0106 58.3995 18.6568 58.9939 20.3031 59.4969 21.995 59.9085 23.6869 60.1829 25.4246 60.3657 27.1623 60.4115 28.8999 60.3657 30.6376 60.1829 32.3295 59.9085 34.0215 59.4969 35.6677 58.9939 37.3139 58.3995 38.9143 57.6679 40.4233 56.8448 41.8866 55.9302 43.3042 54.9242 44.6303 53.8267 45.9106 52.6378 47.0996 51.3574 48.1971 50.0313 49.203 48.6138 50.1176 47.1504 50.9407 45.6414 51.6723 44.0409 52.2669 42.3947 52.7698 40.7485 53.1814 39.0566 53.4557 37.3647 53.6387 35.627"></polygon>
                <polygon id="路径" stroke-linejoin="bevel" points="38.4114 33.8893 38.3656 32.7462 38.1827 31.603 37.9083 30.5055 37.4968 29.4538 36.9937 28.4478 36.3993 27.4417 35.7134 26.5729 34.8903 25.7498 34.0672 24.9724 33.1069 24.3323 32.1009 23.7835 31.0491 23.3262 29.9974 23.0061 28.8542 22.7775 27.711 22.6403 26.6136 22.6403 25.4703 22.7775 24.3271 23.0061 23.2754 23.3262 22.2236 23.7835 21.2176 24.3323 20.2573 24.9724 19.4342 25.7498 18.6111 26.5729 17.9252 27.4417 17.3308 28.4478 16.8277 29.4538 16.4162 30.5055 16.1418 31.603 15.9589 32.7462 15.9131 33.8893 15.9589 35.0326 16.1418 36.1757 16.4162 37.2732 16.8277 38.325 17.3308 39.331 17.9252 40.3369 18.6111 41.2058 19.4342 42.0289 20.2573 42.8062 21.2176 43.4465 22.2236 43.9952 23.2754 44.4524 24.3271 44.7726 25.4703 45.0012 26.6136 45.1384 27.711 45.1384 28.8542 45.0012 29.9974 44.7726 31.0491 44.4524 32.1009 43.9952 33.1069 43.4465 34.0672 42.8062 34.8903 42.0289 35.7134 41.2058 36.3993 40.3369 36.9937 39.331 37.4968 38.325 37.9083 37.2732 38.1827 36.1757 38.3656 35.0326"></polygon>
                <polygon id="路径" stroke-linejoin="bevel" points="37.954 33.8893 37.9083 32.7918 37.7254 31.6944 37.4511 30.5969 37.0395 29.5452 36.5365 28.585 35.9419 27.6247 35.2561 26.7558 34.4787 25.9785 33.6556 25.2468 32.6953 24.6523 31.7351 24.1036 30.7291 23.692 29.6316 23.372 28.5341 23.189 27.4367 23.0976 26.3392 23.1433 25.2417 23.2805 24.1443 23.5092 23.0925 23.8749 22.0865 24.378 21.1262 24.9267 20.2573 25.6126 19.4342 26.3442 18.7026 27.2131 18.0624 28.0819 17.5137 29.0422 17.0564 30.094 16.7364 31.1456 16.5077 32.2431 16.3705 33.3406 16.3705 34.4381 16.5077 35.5355 16.7364 36.633 17.0564 37.6848 17.5137 38.7365 18.0624 39.6968 18.7026 40.5656 19.4342 41.4344 20.2573 42.1661 21.1262 42.852 22.0865 43.4008 23.0925 43.9037 24.1443 44.2696 25.2417 44.4982 26.3392 44.6354 27.4367 44.6811 28.5341 44.5896 29.6316 44.4068 30.7291 44.0867 31.7351 43.6751 32.6953 43.1264 33.6556 42.5319 34.4787 41.8003 35.2561 41.0229 35.9419 40.1541 36.5365 39.1938 37.0395 38.2335 37.4511 37.1817 37.7254 36.0843 37.9083 34.9868"></polygon>
                <polygon id="路径" stroke-linejoin="bevel" points="41.3379 21.4056 41.2922 20.9484 41.1092 20.5368 40.8349 20.2168 40.4691 19.9424 40.1032 19.7594 39.646 19.7137 39.1887 19.7594 38.7771 19.9424 38.457 20.2168 38.1827 20.5368 37.9998 20.9484 37.954 21.4056 37.9998 21.863 38.1827 22.2287 38.457 22.5946 38.7771 22.8689 39.1887 23.0518 39.646 23.0976 40.1032 23.0518 40.4691 22.8689 40.8349 22.5946 41.1092 22.2287 41.2922 21.863"></polygon>
                <polygon id="路径" stroke-linejoin="bevel" points="41.2464 21.4056 41.2007 20.9941 41.0178 20.5825 40.7435 20.2168 40.3776 19.9881 39.9661 19.8509 39.5545 19.8052 39.0973 19.8966 38.7314 20.0796 38.4114 20.3996 38.1827 20.7655 38.0455 21.1771 38.0455 21.6343 38.1827 22.0458 38.4114 22.4117 38.7314 22.7318 39.0973 22.9146 39.5545 23.0061 39.9661 22.9604 40.3776 22.8233 40.7435 22.5946 41.0178 22.2287 41.2007 21.8172"></polygon>
                <polyline id="路径" stroke-linejoin="round" points="21.995 0.005 21.7207 0.005 21.5835 0.0508 21.4463 0.1422 21.4006 0.188 21.3548 0.2337 21.3091 0.2794 21.2634 0.3252 21.2176 0.3709 21.2176 0.508 21.1719 0.5995"></polyline>
                <line x1="21.995" y1="0.8274" x2="21.8578" y2="0.8274" id="路径" stroke-linejoin="round"></line>
                <polyline id="路径" stroke-linejoin="round" points="33.1984 0.5995 33.1984 0.508 33.1526 0.4623 33.1526 0.3709 33.1069 0.3252 33.0612 0.2794 33.0154 0.2337 32.9697 0.188 32.924 0.1422 32.7868 0.0508 32.6953 0.005 32.421 0.005"></polyline>
                <line x1="32.521" y1="0.8274" x2="32.421" y2="0.8274" id="路径" stroke-linejoin="round"></line>
                <polyline id="路径" stroke-linejoin="round" points="21.9035 0.7824 21.8578 0.8281 21.8121 0.8739 21.7207 0.8739 21.675 0.9196 21.4463 0.9196 21.4006 0.8739 21.3548 0.8739 21.3091 0.8281 21.2634 0.7824 21.2176 0.7367 21.2176 0.6452 21.1719 0.5995"></polyline>
                <polyline id="路径" stroke-linejoin="round" points="32.5124 0.7824 32.5582 0.8281 32.6038 0.8739 32.6496 0.8739 32.6953 0.9196 32.924 0.9196 32.9697 0.8739 33.0154 0.8739 33.0612 0.8281 33.1069 0.7824 33.1526 0.7367 33.1526 0.6909 33.1984 0.6452 33.1984 0.5995"></polyline>
                <polyline id="路径" stroke-linejoin="round" points="21.995 67.8194 21.8578 67.8194 21.7207 67.7736 21.5835 67.7279 21.4463 67.6823 21.4006 67.6365 21.3548 67.5908 21.3091 67.5451 21.2634 67.4993 21.2176 67.4536 21.2176 67.3164 21.1719 67.2249"></polyline>
                <line x1="21.995" y1="67.087" x2="21.8578" y2="67.087" id="路径" stroke-linejoin="round"></line>
                <polyline id="路径" stroke-linejoin="round" points="33.1984 67.2249 33.1984 67.3164 33.1526 67.3621 33.1526 67.4536 33.1069 67.4993 33.0612 67.5451 33.0154 67.5908 32.9697 67.6365 32.924 67.6823 32.7868 67.7279 32.6953 67.7736 32.5582 67.8194 32.421 67.8194"></polyline>
                <line x1="32.521" y1="67.087" x2="32.421" y2="67.087" id="路径" stroke-linejoin="round"></line>
                <polyline id="路径" stroke-linejoin="round" points="21.9035 66.9963 21.8578 66.9505 21.8121 66.9505 21.7207 66.9048 21.4006 66.9048 21.3548 66.9505 21.3091 66.9963 21.2634 67.042 21.2176 67.0877 21.2176 67.1792 21.1719 67.2249"></polyline>
                <polyline id="路径" stroke-linejoin="round" points="32.5124 66.9963 32.5582 66.9963 32.6038 66.9505 32.6496 66.9048 32.9697 66.9048 33.0154 66.9505 33.0612 66.9963 33.1069 67.042 33.1526 67.0877 33.1526 67.1335 33.1984 67.1792 33.1984 67.2249"></polyline>
                <line x1="21.995" y1="67.8644" x2="32.421" y2="67.8644" id="路径" stroke-linejoin="round"></line>
                <line x1="21.995" y1="67.087" x2="32.421" y2="67.087" id="路径" stroke-linejoin="round"></line>
                <line x1="21.2169" y1="0.5995" x2="21.2169" y2="7.4129" id="路径" stroke-linejoin="round"></line>
                <line x1="21.2169" y1="60.3657" x2="21.2169" y2="67.2249" id="路径" stroke-linejoin="round"></line>
                <line x1="22.04" y1="60.5487" x2="22.04" y2="67.8194" id="路径" stroke-linejoin="round"></line>
                <line x1="22.04" y1="7.2757" x2="22.04" y2="0.005" id="路径" stroke-linejoin="round"></line>
                <line x1="32.466" y1="60.5029" x2="32.466" y2="67.8194" id="路径" stroke-linejoin="round"></line>
                <line x1="32.466" y1="7.2757" x2="32.466" y2="0.005" id="路径" stroke-linejoin="round"></line>
                <line x1="33.2434" y1="60.3657" x2="33.2434" y2="67.2249" id="路径" stroke-linejoin="round"></line>
                <line x1="33.2434" y1="7.5044" x2="33.2434" y2="0.5995" id="路径" stroke-linejoin="round"></line>
                <line x1="32.421" y1="0.8274" x2="21.995" y2="0.8274" id="路径" stroke-linejoin="round"></line>
                <line x1="32.421" y1="0.05" x2="21.995" y2="0.05" id="路径" stroke-linejoin="round"></line>
                <polygon id="路径" stroke-linejoin="bevel" points="17.2117 48.4717 17.166 48.0144 16.9831 47.6029 16.7087 47.2828 16.3429 47.0084 15.9771 46.8255 15.5198 46.7798 15.0625 46.8255 14.6509 47.0084 14.3309 47.2828 14.0565 47.6029 13.8736 48.0144 13.8278 48.4717 13.8736 48.929 14.0565 49.2948 14.3309 49.6606 14.6509 49.935 15.0625 50.1179 15.5198 50.1637 15.9771 50.1179 16.3429 49.935 16.7087 49.6606 16.9831 49.2948 17.166 48.929"></polygon>
                <polygon id="路径" stroke-linejoin="bevel" points="17.1202 48.4717 17.0745 48.0601 16.8917 47.6486 16.6173 47.2828 16.2514 47.0541 15.8399 46.917 15.4283 46.8713 14.9711 46.9626 14.6052 47.1456 14.2852 47.4657 14.0565 47.8315 13.9193 48.2431 13.9193 48.7003 14.0565 49.1119 14.2852 49.4777 14.6052 49.7978 14.9711 49.9807 15.4283 50.0722 15.8399 50.0265 16.2514 49.8893 16.6173 49.6606 16.8917 49.2948 17.0745 48.8832"></polygon>
            </g>
        </g>
    </g>
</svg>