<?xml version="1.0" encoding="UTF-8"?>
<svg width="320px" height="320px" viewBox="0 0 320 320" version="1.1" xmlns="http://www.w3.org/2000/svg" xmlns:xlink="http://www.w3.org/1999/xlink">
    <title>images / ZGRC_KEY_004_learnmode</title>
    <g id="images-/-ZGRC_KEY_004_learnmode" stroke="none" stroke-width="1" fill="none" fill-rule="evenodd">
        <rect id="Rectangle" fill="#000000" x="109" y="44" width="10" height="234"></rect>
        <rect id="Rectangle-Copy-4" fill="#000000" x="201" y="44" width="10" height="234"></rect>
        <path d="M288.206976,10 C295.784885,10 298.532818,10.7890177 301.303188,12.270628 C304.073559,13.7522383 306.247762,15.9264411 307.729372,18.6968115 C309.210982,21.4671819 310,24.2151149 310,31.7930242 L310,288.206976 C310,295.784885 309.210982,298.532818 307.729372,301.303188 C306.247762,304.073559 304.073559,306.247762 301.303188,307.729372 C298.532818,309.210982 295.784885,310 288.206976,310 L31.7930242,310 C24.2151149,310 21.4671819,309.210982 18.6968115,307.729372 C15.9264411,306.247762 13.7522383,304.073559 12.270628,301.303188 C10.7890177,298.532818 10,295.784885 10,288.206976 L10,31.7930242 C10,24.2151149 10.7890177,21.4671819 12.270628,18.6968115 C13.7522383,15.9264411 15.9264411,13.7522383 18.6968115,12.270628 C21.4671819,10.7890177 24.2151149,10 31.7930242,10 L288.206976,10 Z M284.616689,20 L35.3833112,20 C30.0341988,20 28.0944813,20.5569537 26.1389258,21.6027962 C24.1833702,22.6486388 22.6486388,24.1833702 21.6027962,26.1389258 C20.5569537,28.0944813 20,30.0341988 20,35.3833112 L20,35.3833112 L20,284.616689 C20,289.965801 20.5569537,291.905519 21.6027962,293.861074 C22.6486388,295.81663 24.1833702,297.351361 26.1389258,298.397204 C28.0944813,299.443046 30.0341988,300 35.3833112,300 L35.3833112,300 L284.616689,300 C289.965801,300 291.905519,299.443046 293.861074,298.397204 C295.81663,297.351361 297.351361,295.81663 298.397204,293.861074 C299.443046,291.905519 300,289.965801 300,284.616689 L300,284.616689 L300,35.3833112 C300,30.0341988 299.443046,28.0944813 298.397204,26.1389258 C297.351361,24.1833702 295.81663,22.6486388 293.861074,21.6027962 C291.905519,20.5569537 289.965801,20 284.616689,20 L284.616689,20 Z" id="Combined-Shape" fill="#000000"></path>
        <path d="M271.590287,44 C273.819084,44 274.627299,44.232064 275.442114,44.6678318 C276.256929,45.1035995 276.896401,45.7430709 277.332168,46.5578857 C277.767936,47.3727006 278,48.1809162 278,50.409713 L278,271.590287 C278,273.819084 277.767936,274.627299 277.332168,275.442114 C276.896401,276.256929 276.256929,276.896401 275.442114,277.332168 C274.627299,277.767936 273.819084,278 271.590287,278 L50.409713,278 C48.1809162,278 47.3727006,277.767936 46.5578857,277.332168 C45.7430709,276.896401 45.1035995,276.256929 44.6678318,275.442114 C44.232064,274.627299 44,273.819084 44,271.590287 L44,50.409713 C44,48.1809162 44.232064,47.3727006 44.6678318,46.5578857 C45.1035995,45.7430709 45.7430709,45.1035995 46.5578857,44.6678318 C47.3727006,44.232064 48.1809162,44 50.409713,44 L271.590287,44 Z M265.718057,53 L54.2819426,53 C53.8361832,53 53.6745401,53.0464128 53.5115771,53.1335664 C53.3486142,53.2207199 53.2207199,53.3486142 53.1335664,53.5115771 C53.0464128,53.6745401 53,53.8361832 53,54.2819426 L53,54.2819426 L53,265.718057 C53,266.163817 53.0464128,266.32546 53.1335664,266.488423 C53.2207199,266.651386 53.3486142,266.77928 53.5115771,266.866434 C53.6745401,266.953587 53.8361832,267 54.2819426,267 L54.2819426,267 L265.718057,267 C266.163817,267 266.32546,266.953587 266.488423,266.866434 C266.651386,266.77928 266.77928,266.651386 266.866434,266.488423 C266.953587,266.32546 267,266.163817 267,265.718057 L267,265.718057 L267,54.2819426 C267,53.8361832 266.953587,53.6745401 266.866434,53.5115771 C266.77928,53.3486142 266.651386,53.2207199 266.488423,53.1335664 C266.32546,53.0464128 266.163817,53 265.718057,53 L265.718057,53 Z" id="Combined-Shape" fill="#000000"></path>
        <g id="images-/-pair" transform="translate(53.000000, 145.000000)" fill="#000000" fill-rule="nonzero">
            <path d="M15.8349609,21.5170898 C16.3452148,21.5170898 16.6699219,21.1831055 16.6699219,20.6542969 L16.6699219,16.609375 L19.7592773,16.609375 C22.2734375,16.609375 24.0639648,14.8374023 24.0639648,12.2954102 C24.0639648,9.76269531 22.2919922,8 19.777832,8 L15.8349609,8 C15.324707,8 15,8.33398438 15,8.86279297 L15,20.6542969 C15,21.1831055 15.324707,21.5170898 15.8349609,21.5170898 Z M19.3417969,15.125 L16.6699219,15.125 L16.6699219,9.484375 L19.3417969,9.484375 C21.262207,9.484375 22.3476562,10.5234375 22.3476562,12.2954102 C22.3476562,14.0766602 21.2529297,15.125 19.3417969,15.125 Z M31.1574874,21.5541992 C31.6027999,21.5541992 31.9182296,21.2202148 31.9182296,20.737793 L31.9182296,14.7167969 C31.9182296,12.7963867 30.4895186,11.5717773 28.2258467,11.5717773 C26.6579756,11.5717773 25.2478194,12.2675781 24.7004561,13.3251953 C24.5705733,13.5571289 24.5056319,13.7890625 24.5056319,13.9931641 C24.5056319,14.4291992 24.8025069,14.7167969 25.2199874,14.7167969 C25.5261397,14.7167969 25.7395186,14.5961914 25.8879561,14.3271484 C26.4260421,13.371582 27.1403975,12.9912109 28.1887374,12.9912109 C29.5246749,12.9912109 30.3039717,13.6962891 30.3039717,14.8745117 L30.3039717,15.6816406 L27.530046,15.8393555 C25.3034835,15.9692383 24.0324874,17.0083008 24.0324874,18.659668 C24.0324874,20.3945312 25.3220381,21.5541992 27.2424483,21.5541992 C28.5412764,21.5541992 29.7751631,20.8305664 30.3503585,19.7265625 L30.3874678,19.7265625 L30.3874678,20.737793 C30.3874678,21.2202148 30.7028975,21.5541992 31.1574874,21.5541992 Z M27.6042647,20.1811523 C26.4445967,20.1811523 25.6745772,19.578125 25.6745772,18.659668 C25.6745772,17.7504883 26.4167647,17.175293 27.7155928,17.0917969 L30.3039717,16.934082 L30.3039717,17.7226562 C30.3039717,19.1142578 29.1257491,20.1811523 27.6042647,20.1811523 Z M34.4009122,10.1152344 C34.9575529,10.1152344 35.4121427,9.66064453 35.4121427,9.11328125 C35.4121427,8.55664062 34.9575529,8.11132812 34.4009122,8.11132812 C33.853549,8.11132812 33.3989591,8.55664062 33.3989591,9.11328125 C33.3989591,9.66064453 33.853549,10.1152344 34.4009122,10.1152344 Z M34.4009122,21.5541992 C34.8740568,21.5541992 35.2080411,21.2016602 35.2080411,20.6914062 L35.2080411,12.4345703 C35.2080411,11.9243164 34.8740568,11.5717773 34.4009122,11.5717773 C33.9277677,11.5717773 33.5937833,11.9243164 33.5937833,12.4345703 L33.5937833,20.6914062 C33.5937833,21.2016602 33.9277677,21.5541992 34.4009122,21.5541992 Z M37.7371105,21.5541992 C38.2102551,21.5541992 38.5442394,21.2016602 38.5442394,20.6914062 L38.5442394,15.394043 C38.5442394,14.1601562 39.1658215,13.1118164 40.6223644,13.1118164 C40.9749035,13.1118164 41.2253918,13.046875 41.392384,12.9077148 C41.5593762,12.777832 41.6428723,12.5922852 41.6428723,12.3417969 C41.6428723,12.1191406 41.5779308,11.9335938 41.4387707,11.8037109 C41.2810558,11.6552734 41.0305676,11.5717773 40.6780285,11.5717773 C39.7131848,11.5717773 38.7668957,12.3139648 38.4885754,13.315918 L38.451466,13.315918 L38.451466,12.3881836 C38.451466,11.9057617 38.1360363,11.5717773 37.6907238,11.5717773 C37.2454113,11.5717773 36.9299816,11.9057617 36.9299816,12.3881836 L36.9299816,20.6914062 C36.9299816,21.2016602 37.263966,21.5541992 37.7371105,21.5541992 Z" id="Pair"></path>
        </g>
    </g>
</svg>