<?xml version="1.0" encoding="UTF-8"?>
<svg width="320px" height="320px" viewBox="0 0 320 320" version="1.1" xmlns="http://www.w3.org/2000/svg" xmlns:xlink="http://www.w3.org/1999/xlink">
    <title>images / ZG2868A</title>
    <g id="images-/-ZG2868A" stroke="none" stroke-width="1" fill="none" fill-rule="evenodd">
        <path d="M168.220836,-1.29016504e-14 C182.62325,-1.55473309e-14 188.716556,1.670861 194.583223,4.80838867 C200.449889,7.94591634 205.054084,12.5501107 208.191611,18.4167773 C211.329139,24.283444 213,30.3767502 213,44.7791642 L213,275.220836 C213,289.62325 211.329139,295.716556 208.191611,301.583223 C205.054084,307.449889 200.449889,312.054084 194.583223,315.191611 C188.716556,318.329139 182.62325,320 168.220836,320 L151.779164,320 C137.37675,320 131.283444,318.329139 125.416777,315.191611 C119.550111,312.054084 114.945916,307.449889 111.808389,301.583223 C108.670861,295.716556 107,289.62325 107,275.220836 L107,44.7791642 C107,30.3767502 108.670861,24.283444 111.808389,18.4167773 C114.945916,12.5501107 119.550111,7.94591634 125.416777,4.80838867 C131.283444,1.670861 137.37675,-1.34813824e-14 151.779164,-1.61270629e-14 L168.220836,-1.29016504e-14 Z M153.190203,11 C141.44654,11 136.561663,12.3459714 131.835737,14.8734242 C127.109811,17.400877 123.400877,21.1098114 120.873424,25.8357373 C118.388096,30.4828978 117.045194,35.283755 117.001121,46.6087046 L117,47.1902032 L117,274.809797 C117,286.55346 118.345971,291.438337 120.873424,296.164263 C123.400877,300.890189 127.109811,304.599123 131.835737,307.126576 C136.482898,309.611904 141.283755,310.954806 152.608705,310.998879 L153.190203,311 L166.809797,311 C178.55346,311 183.438337,309.654029 188.164263,307.126576 C192.890189,304.599123 196.599123,300.890189 199.126576,296.164263 C201.611904,291.517102 202.954806,286.716245 202.998879,275.391295 L203,274.809797 L203,47.1902032 C203,35.4465401 201.654029,30.5616632 199.126576,25.8357373 C196.599123,21.1098114 192.890189,17.400877 188.164263,14.8734242 C183.517102,12.3880956 178.716245,11.0451939 167.391295,11.0011209 L166.809797,11 L153.190203,11 Z M131,239 C134.865993,239 138,242.134007 138,246 C138,249.865993 134.865993,253 131,253 C127.134007,253 124,249.865993 124,246 C124,242.134007 127.134007,239 131,239 Z M150,239 C153.865993,239 157,242.134007 157,246 C157,249.865993 153.865993,253 150,253 C146.134007,253 143,249.865993 143,246 C143,242.134007 146.134007,239 150,239 Z M170,239 C173.865993,239 177,242.134007 177,246 C177,249.865993 173.865993,253 170,253 C166.134007,253 163,249.865993 163,246 C163,242.134007 166.134007,239 170,239 Z M189,239 C192.865993,239 196,242.134007 196,246 C196,249.865993 192.865993,253 189,253 C185.134007,253 182,249.865993 182,246 C182,242.134007 185.134007,239 189,239 Z M138,215 C141.313708,215 144,217.686292 144,221 C144,224.313708 141.313708,227 138,227 L130,227 C126.686292,227 124,224.313708 124,221 C124,217.686292 126.686292,215 130,215 L138,215 Z M190,215 C193.313708,215 196,217.686292 196,221 C196,224.313708 193.313708,227 190,227 L182,227 C178.686292,227 176,224.313708 176,221 C176,217.686292 178.686292,215 182,215 L190,215 Z M164,215 C167.313708,215 170,217.686292 170,221 C170,224.313708 167.313708,227 164,227 L156,227 C152.686292,227 150,224.313708 150,221 C150,217.686292 152.686292,215 156,215 L164,215 Z M160,180 C167.179702,180 173,185.820298 173,193 C173,200.179702 167.179702,206 160,206 C152.820298,206 147,200.179702 147,193 C147,185.820298 152.820298,180 160,180 Z M138,168 C141.313708,168 144,170.686292 144,174 C144,177.313708 141.313708,180 138,180 L130,180 C126.686292,180 124,177.313708 124,174 C124,170.686292 126.686292,168 130,168 L138,168 Z M190,168 C193.313708,168 196,170.686292 196,174 C196,177.313708 193.313708,180 190,180 L182,180 C178.686292,180 176,177.313708 176,174 C176,170.686292 178.686292,168 182,168 L190,168 Z M131,144 C134.865993,144 138,147.134007 138,151 C138,154.865993 134.865993,158 131,158 C127.134007,158 124,154.865993 124,151 C124,147.134007 127.134007,144 131,144 Z M150,144 C153.865993,144 157,147.134007 157,151 C157,154.865993 153.865993,158 150,158 C146.134007,158 143,154.865993 143,151 C143,147.134007 146.134007,144 150,144 Z M170,144 C173.865993,144 177,147.134007 177,151 C177,154.865993 173.865993,158 170,158 C166.134007,158 163,154.865993 163,151 C163,147.134007 166.134007,144 170,144 Z M189,144 C192.865993,144 196,147.134007 196,151 C196,154.865993 192.865993,158 189,158 C185.134007,158 182,154.865993 182,151 C182,147.134007 185.134007,144 189,144 Z M131,121 C134.865993,121 138,124.134007 138,128 C138,131.865993 134.865993,135 131,135 C127.134007,135 124,131.865993 124,128 C124,124.134007 127.134007,121 131,121 Z M150,121 C153.865993,121 157,124.134007 157,128 C157,131.865993 153.865993,135 150,135 C146.134007,135 143,131.865993 143,128 C143,124.134007 146.134007,121 150,121 Z M170,121 C173.865993,121 177,124.134007 177,128 C177,131.865993 173.865993,135 170,135 C166.134007,135 163,131.865993 163,128 C163,124.134007 166.134007,121 170,121 Z M189,121 C192.865993,121 196,124.134007 196,128 C196,131.865993 192.865993,135 189,135 C185.134007,135 182,131.865993 182,128 C182,124.134007 185.134007,121 189,121 Z M160,30 C180.434536,30 197,46.5654643 197,67 C197,87.4345357 180.434536,104 160,104 C139.565464,104 123,87.4345357 123,67 C123,46.5654643 139.565464,30 160,30 Z M160,54 C152.820298,54 147,59.8202983 147,67 C147,74.1797017 152.820298,80 160,80 C167.179702,80 173,74.1797017 173,67 C173,59.8202983 167.179702,54 160,54 Z" id="Combined-Shape" fill="#000000"></path>
    </g>
</svg>