<?xml version="1.0" encoding="UTF-8"?>
<svg width="320px" height="320px" viewBox="0 0 320 320" version="1.1" xmlns="http://www.w3.org/2000/svg" xmlns:xlink="http://www.w3.org/1999/xlink">
    <title>images / ZG2868A_learnmode</title>
    <g id="images-/-ZG2868A_learnmode" stroke="none" stroke-width="1" fill="none" fill-rule="evenodd">
        <path d="M168.220836,-1.29016504e-14 C182.62325,-1.55473309e-14 188.716556,1.670861 194.583223,4.80838867 C200.449889,7.94591634 205.054084,12.5501107 208.191611,18.4167773 C211.329139,24.283444 213,30.3767502 213,44.7791642 L213,275.220836 C213,289.62325 211.329139,295.716556 208.191611,301.583223 C205.054084,307.449889 200.449889,312.054084 194.583223,315.191611 C188.716556,318.329139 182.62325,320 168.220836,320 L151.779164,320 C137.37675,320 131.283444,318.329139 125.416777,315.191611 C119.550111,312.054084 114.945916,307.449889 111.808389,301.583223 C108.670861,295.716556 107,289.62325 107,275.220836 L107,44.7791642 C107,30.3767502 108.670861,24.283444 111.808389,18.4167773 C114.945916,12.5501107 119.550111,7.94591634 125.416777,4.80838867 C131.283444,1.670861 137.37675,-1.34813824e-14 151.779164,-1.61270629e-14 L168.220836,-1.29016504e-14 Z M153.190203,11 C141.44654,11 136.561663,12.3459714 131.835737,14.8734242 C127.109811,17.400877 123.400877,21.1098114 120.873424,25.8357373 C118.388096,30.4828978 117.045194,35.283755 117.001121,46.6087046 L117,47.1902032 L117,274.809797 C117,286.55346 118.345971,291.438337 120.873424,296.164263 C123.400877,300.890189 127.109811,304.599123 131.835737,307.126576 C136.482898,309.611904 141.283755,310.954806 152.608705,310.998879 L153.190203,311 L166.809797,311 C178.55346,311 183.438337,309.654029 188.164263,307.126576 C192.890189,304.599123 196.599123,300.890189 199.126576,296.164263 C201.611904,291.517102 202.954806,286.716245 202.998879,275.391295 L203,274.809797 L203,47.1902032 C203,35.4465401 201.654029,30.5616632 199.126576,25.8357373 C196.599123,21.1098114 192.890189,17.400877 188.164263,14.8734242 C183.517102,12.3880956 178.716245,11.0451939 167.391295,11.0011209 L166.809797,11 L153.190203,11 Z M131,239 C134.865993,239 138,242.134007 138,246 C138,249.865993 134.865993,253 131,253 C127.134007,253 124,249.865993 124,246 C124,242.134007 127.134007,239 131,239 Z M150,239 C153.865993,239 157,242.134007 157,246 C157,249.865993 153.865993,253 150,253 C146.134007,253 143,249.865993 143,246 C143,242.134007 146.134007,239 150,239 Z M170,239 C173.865993,239 177,242.134007 177,246 C177,249.865993 173.865993,253 170,253 C166.134007,253 163,249.865993 163,246 C163,242.134007 166.134007,239 170,239 Z M189,239 C192.865993,239 196,242.134007 196,246 C196,249.865993 192.865993,253 189,253 C185.134007,253 182,249.865993 182,246 C182,242.134007 185.134007,239 189,239 Z M138,215 C141.313708,215 144,217.686292 144,221 C144,224.313708 141.313708,227 138,227 L130,227 C126.686292,227 124,224.313708 124,221 C124,217.686292 126.686292,215 130,215 L138,215 Z M190,215 C193.313708,215 196,217.686292 196,221 C196,224.313708 193.313708,227 190,227 L182,227 C178.686292,227 176,224.313708 176,221 C176,217.686292 178.686292,215 182,215 L190,215 Z M164,215 C167.313708,215 170,217.686292 170,221 C170,224.313708 167.313708,227 164,227 L156,227 C152.686292,227 150,224.313708 150,221 C150,217.686292 152.686292,215 156,215 L164,215 Z M160,180 C167.179702,180 173,185.820298 173,193 C173,200.179702 167.179702,206 160,206 C152.820298,206 147,200.179702 147,193 C147,185.820298 152.820298,180 160,180 Z M138,168 C141.313708,168 144,170.686292 144,174 C144,177.313708 141.313708,180 138,180 L130,180 C126.686292,180 124,177.313708 124,174 C124,170.686292 126.686292,168 130,168 L138,168 Z M190,168 C193.313708,168 196,170.686292 196,174 C196,177.313708 193.313708,180 190,180 L182,180 C178.686292,180 176,177.313708 176,174 C176,170.686292 178.686292,168 182,168 L190,168 Z M131,144 C134.865993,144 138,147.134007 138,151 C138,154.865993 134.865993,158 131,158 C127.134007,158 124,154.865993 124,151 C124,147.134007 127.134007,144 131,144 Z M150,144 C153.865993,144 157,147.134007 157,151 C157,154.865993 153.865993,158 150,158 C146.134007,158 143,154.865993 143,151 C143,147.134007 146.134007,144 150,144 Z M170,144 C173.865993,144 177,147.134007 177,151 C177,154.865993 173.865993,158 170,158 C166.134007,158 163,154.865993 163,151 C163,147.134007 166.134007,144 170,144 Z M189,144 C192.865993,144 196,147.134007 196,151 C196,154.865993 192.865993,158 189,158 C185.134007,158 182,154.865993 182,151 C182,147.134007 185.134007,144 189,144 Z M131,121 C134.865993,121 138,124.134007 138,128 C138,131.865993 134.865993,135 131,135 C127.134007,135 124,131.865993 124,128 C124,124.134007 127.134007,121 131,121 Z M150,121 C153.865993,121 157,124.134007 157,128 C157,131.865993 153.865993,135 150,135 C146.134007,135 143,131.865993 143,128 C143,124.134007 146.134007,121 150,121 Z M170,121 C173.865993,121 177,124.134007 177,128 C177,131.865993 173.865993,135 170,135 C166.134007,135 163,131.865993 163,128 C163,124.134007 166.134007,121 170,121 Z M189,121 C192.865993,121 196,124.134007 196,128 C196,131.865993 192.865993,135 189,135 C185.134007,135 182,131.865993 182,128 C182,124.134007 185.134007,121 189,121 Z M160,30 C180.434536,30 197,46.5654643 197,67 C197,87.4345357 180.434536,104 160,104 C139.565464,104 123,87.4345357 123,67 C123,46.5654643 139.565464,30 160,30 Z M160,54 C152.820298,54 147,59.8202983 147,67 C147,74.1797017 152.820298,80 160,80 C167.179702,80 173,74.1797017 173,67 C173,59.8202983 167.179702,54 160,54 Z" id="Combined-Shape" fill="#000000"></path>
        <rect id="Rectangle" fill="#000000" x="171" y="190" width="60" height="6"></rect>
        <rect id="Rectangle-Copy" fill="#000000" x="87" y="218" width="40" height="6"></rect>
        <g id="images-/-reset" transform="translate(228.000000, 178.000000)" fill="#000000" fill-rule="nonzero">
            <path d="M15.3681641,21.5541992 C15.8505859,21.5541992 16.2216797,21.2202148 16.2216797,20.7841797 C16.2216797,20.5986328 16.175293,20.4316406 16.0454102,20.199707 L13.5961914,15.8300781 C15.2753906,15.3012695 16.2866211,13.8540039 16.2866211,11.9892578 C16.2866211,9.57714844 14.5981445,8 12.019043,8 L7.83496094,8 C7.32470703,8 7,8.33398438 7,8.86279297 L7,20.6914062 C7,21.2109375 7.33398437,21.5541992 7.83496094,21.5541992 C8.3359375,21.5541992 8.66992187,21.2109375 8.66992187,20.6914062 L8.66992187,16.0898438 L11.8706055,16.0898438 L14.5517578,21.0161133 C14.7651367,21.4150391 14.987793,21.5541992 15.3681641,21.5541992 Z M11.8706055,14.6147461 L8.66992187,14.6147461 L8.66992187,9.484375 L11.7963867,9.484375 C13.5219727,9.484375 14.5610352,10.4399414 14.5610352,12.0449219 C14.5610352,13.6870117 13.5869141,14.6147461 11.8706055,14.6147461 Z M21.7194991,21.5541992 C23.4821944,21.5541992 24.8366866,20.8120117 25.4582686,19.5039062 C25.5324874,19.3276367 25.5788741,19.1606445 25.5788741,19.0307617 C25.5788741,18.6040039 25.2912764,18.3256836 24.8645186,18.3256836 C24.6140303,18.3256836 24.4284835,18.418457 24.2614913,18.6503906 C23.5100264,19.7451172 22.8049483,20.1533203 21.6545577,20.1533203 C19.9289717,20.1533203 18.8620772,18.9472656 18.8620772,16.9990234 L24.8923506,16.9990234 C25.4489913,16.9990234 25.7829756,16.6464844 25.7829756,16.0620117 C25.7829756,13.4179688 24.0481124,11.5717773 21.5803389,11.5717773 C18.9177413,11.5717773 17.2014327,13.5571289 17.2014327,16.6000977 C17.2014327,19.7172852 18.8713546,21.5541992 21.7194991,21.5541992 Z M24.1130538,15.7373047 L18.8713546,15.7373047 C18.9734053,14.0766602 20.0495772,12.9726562 21.5525069,12.9726562 C23.0461592,12.9726562 24.0759444,14.0673828 24.1130538,15.7373047 Z M30.2973966,21.5541992 C32.5889005,21.5541992 34.1382169,20.3945312 34.1382169,18.6689453 C34.1382169,17.2495117 33.3960294,16.5444336 31.3828458,16.0527344 L29.9448575,15.7001953 C28.8872404,15.4404297 28.3677091,14.9765625 28.3677091,14.3085938 C28.3677091,13.4829102 29.174838,12.8984375 30.334506,12.8984375 C31.3179044,12.8984375 31.9394865,13.2509766 32.3569669,14.0581055 C32.5332365,14.3920898 32.7558927,14.4941406 33.0713224,14.4941406 C33.4609708,14.4941406 33.7021818,14.2436523 33.7021818,13.8632812 C33.7021818,13.7890625 33.6929044,13.7148438 33.6743497,13.6220703 C33.4238615,12.4624023 32.0137052,11.5717773 30.4272794,11.5717773 C28.2471036,11.5717773 26.772006,12.7128906 26.772006,14.3920898 C26.772006,15.746582 27.6719083,16.6279297 29.5366544,17.0917969 L31.0117521,17.4628906 C32.0972013,17.7319336 32.4961271,18.1030273 32.4961271,18.7988281 C32.4961271,19.6987305 31.6611661,20.2368164 30.4272794,20.2368164 C29.1933927,20.2368164 28.6181974,19.8564453 28.1357755,19.012207 C27.9502286,18.6782227 27.718295,18.5297852 27.4306974,18.5297852 C27.0132169,18.5297852 26.6977872,18.7709961 26.6977872,19.1977539 C26.6977872,19.3183594 26.7163419,19.4389648 26.772006,19.578125 C27.2358732,20.7841797 28.581088,21.5541992 30.2973966,21.5541992 Z M39.3762707,21.5541992 C41.138966,21.5541992 42.4934582,20.8120117 43.1150402,19.5039062 C43.189259,19.3276367 43.2356457,19.1606445 43.2356457,19.0307617 C43.2356457,18.6040039 42.948048,18.3256836 42.5212902,18.3256836 C42.2708019,18.3256836 42.0852551,18.418457 41.9182629,18.6503906 C41.166798,19.7451172 40.4617199,20.1533203 39.3113293,20.1533203 C37.5857433,20.1533203 36.5188488,18.9472656 36.5188488,16.9990234 L42.5491223,16.9990234 C43.1057629,16.9990234 43.4397473,16.6464844 43.4397473,16.0620117 C43.4397473,13.4179688 41.704884,11.5717773 39.2371105,11.5717773 C36.5745129,11.5717773 34.8582043,13.5571289 34.8582043,16.6000977 C34.8582043,19.7172852 36.5281262,21.5541992 39.3762707,21.5541992 Z M41.7698254,15.7373047 L36.5281262,15.7373047 C36.6301769,14.0766602 37.7063488,12.9726562 39.2092785,12.9726562 C40.7029308,12.9726562 41.732716,14.0673828 41.7698254,15.7373047 Z M47.5645198,21.4614258 C48.4644221,21.4614258 48.7427424,21.2016602 48.7427424,20.7099609 C48.7427424,20.3295898 48.5015315,20.1162109 47.9727229,20.0791016 L47.8335627,20.0698242 C47.0264338,20.0141602 46.7388362,19.6245117 46.7388362,18.8081055 L46.7388362,13.0654297 L47.9820002,13.0654297 C48.4458674,13.0654297 48.7056331,12.8242188 48.7056331,12.3974609 C48.7056331,11.9799805 48.4458674,11.7387695 47.9820002,11.7387695 L46.7388362,11.7387695 L46.7388362,10.0874023 C46.7388362,9.57714844 46.4048518,9.22460938 45.9317073,9.22460938 C45.4585627,9.22460938 45.1245784,9.57714844 45.1245784,10.0874023 L45.1245784,11.7387695 L44.3174495,11.7387695 C43.8535823,11.7387695 43.5938167,11.9799805 43.5938167,12.3974609 C43.5938167,12.8242188 43.8535823,13.0654297 44.3174495,13.0654297 L45.1245784,13.0654297 L45.1245784,19.1606445 C45.1245784,20.7006836 45.9038752,21.4614258 47.462469,21.4614258 L47.5645198,21.4614258 Z" id="Reset"></path>
        </g>
        <g id="images-/-pair" transform="translate(42.000000, 206.000000)" fill="#000000" fill-rule="nonzero">
            <path d="M15.8349609,21.5170898 C16.3452148,21.5170898 16.6699219,21.1831055 16.6699219,20.6542969 L16.6699219,16.609375 L19.7592773,16.609375 C22.2734375,16.609375 24.0639648,14.8374023 24.0639648,12.2954102 C24.0639648,9.76269531 22.2919922,8 19.777832,8 L15.8349609,8 C15.324707,8 15,8.33398438 15,8.86279297 L15,20.6542969 C15,21.1831055 15.324707,21.5170898 15.8349609,21.5170898 Z M19.3417969,15.125 L16.6699219,15.125 L16.6699219,9.484375 L19.3417969,9.484375 C21.262207,9.484375 22.3476562,10.5234375 22.3476562,12.2954102 C22.3476562,14.0766602 21.2529297,15.125 19.3417969,15.125 Z M31.1574874,21.5541992 C31.6027999,21.5541992 31.9182296,21.2202148 31.9182296,20.737793 L31.9182296,14.7167969 C31.9182296,12.7963867 30.4895186,11.5717773 28.2258467,11.5717773 C26.6579756,11.5717773 25.2478194,12.2675781 24.7004561,13.3251953 C24.5705733,13.5571289 24.5056319,13.7890625 24.5056319,13.9931641 C24.5056319,14.4291992 24.8025069,14.7167969 25.2199874,14.7167969 C25.5261397,14.7167969 25.7395186,14.5961914 25.8879561,14.3271484 C26.4260421,13.371582 27.1403975,12.9912109 28.1887374,12.9912109 C29.5246749,12.9912109 30.3039717,13.6962891 30.3039717,14.8745117 L30.3039717,15.6816406 L27.530046,15.8393555 C25.3034835,15.9692383 24.0324874,17.0083008 24.0324874,18.659668 C24.0324874,20.3945312 25.3220381,21.5541992 27.2424483,21.5541992 C28.5412764,21.5541992 29.7751631,20.8305664 30.3503585,19.7265625 L30.3874678,19.7265625 L30.3874678,20.737793 C30.3874678,21.2202148 30.7028975,21.5541992 31.1574874,21.5541992 Z M27.6042647,20.1811523 C26.4445967,20.1811523 25.6745772,19.578125 25.6745772,18.659668 C25.6745772,17.7504883 26.4167647,17.175293 27.7155928,17.0917969 L30.3039717,16.934082 L30.3039717,17.7226562 C30.3039717,19.1142578 29.1257491,20.1811523 27.6042647,20.1811523 Z M34.4009122,10.1152344 C34.9575529,10.1152344 35.4121427,9.66064453 35.4121427,9.11328125 C35.4121427,8.55664062 34.9575529,8.11132812 34.4009122,8.11132812 C33.853549,8.11132812 33.3989591,8.55664062 33.3989591,9.11328125 C33.3989591,9.66064453 33.853549,10.1152344 34.4009122,10.1152344 Z M34.4009122,21.5541992 C34.8740568,21.5541992 35.2080411,21.2016602 35.2080411,20.6914062 L35.2080411,12.4345703 C35.2080411,11.9243164 34.8740568,11.5717773 34.4009122,11.5717773 C33.9277677,11.5717773 33.5937833,11.9243164 33.5937833,12.4345703 L33.5937833,20.6914062 C33.5937833,21.2016602 33.9277677,21.5541992 34.4009122,21.5541992 Z M37.7371105,21.5541992 C38.2102551,21.5541992 38.5442394,21.2016602 38.5442394,20.6914062 L38.5442394,15.394043 C38.5442394,14.1601562 39.1658215,13.1118164 40.6223644,13.1118164 C40.9749035,13.1118164 41.2253918,13.046875 41.392384,12.9077148 C41.5593762,12.777832 41.6428723,12.5922852 41.6428723,12.3417969 C41.6428723,12.1191406 41.5779308,11.9335938 41.4387707,11.8037109 C41.2810558,11.6552734 41.0305676,11.5717773 40.6780285,11.5717773 C39.7131848,11.5717773 38.7668957,12.3139648 38.4885754,13.315918 L38.451466,13.315918 L38.451466,12.3881836 C38.451466,11.9057617 38.1360363,11.5717773 37.6907238,11.5717773 C37.2454113,11.5717773 36.9299816,11.9057617 36.9299816,12.3881836 L36.9299816,20.6914062 C36.9299816,21.2016602 37.263966,21.5541992 37.7371105,21.5541992 Z" id="Pair"></path>
        </g>
    </g>
</svg>