<?xml version="1.0" encoding="UTF-8"?>
<svg width="320px" height="320px" viewBox="0 0 320 320" version="1.1" xmlns="http://www.w3.org/2000/svg" xmlns:xlink="http://www.w3.org/1999/xlink">
    <title>images / ZG2833K4_EU06</title>
    <g id="images-/-ZG2833K4_EU06" stroke="none" stroke-width="1" fill="none" fill-rule="evenodd">
        <rect id="Rectangle" fill="#000000" x="109" y="44" width="10" height="234"></rect>
        <rect id="Rectangle-Copy-4" fill="#000000" x="201" y="44" width="10" height="234"></rect>
        <rect id="Rectangle-Copy-5" fill="#000000" x="44" y="156" width="74" height="10"></rect>
        <rect id="Rectangle-Copy-8" fill="#000000" x="204" y="156" width="74" height="10"></rect>
        <path d="M288.206976,10 C295.784885,10 298.532818,10.7890177 301.303188,12.270628 C304.073559,13.7522383 306.247762,15.9264411 307.729372,18.6968115 C309.210982,21.4671819 310,24.2151149 310,31.7930242 L310,288.206976 C310,295.784885 309.210982,298.532818 307.729372,301.303188 C306.247762,304.073559 304.073559,306.247762 301.303188,307.729372 C298.532818,309.210982 295.784885,310 288.206976,310 L31.7930242,310 C24.2151149,310 21.4671819,309.210982 18.6968115,307.729372 C15.9264411,306.247762 13.7522383,304.073559 12.270628,301.303188 C10.7890177,298.532818 10,295.784885 10,288.206976 L10,31.7930242 C10,24.2151149 10.7890177,21.4671819 12.270628,18.6968115 C13.7522383,15.9264411 15.9264411,13.7522383 18.6968115,12.270628 C21.4671819,10.7890177 24.2151149,10 31.7930242,10 L288.206976,10 Z M284.616689,20 L35.3833112,20 C30.0341988,20 28.0944813,20.5569537 26.1389258,21.6027962 C24.1833702,22.6486388 22.6486388,24.1833702 21.6027962,26.1389258 C20.5569537,28.0944813 20,30.0341988 20,35.3833112 L20,35.3833112 L20,284.616689 C20,289.965801 20.5569537,291.905519 21.6027962,293.861074 C22.6486388,295.81663 24.1833702,297.351361 26.1389258,298.397204 C28.0944813,299.443046 30.0341988,300 35.3833112,300 L35.3833112,300 L284.616689,300 C289.965801,300 291.905519,299.443046 293.861074,298.397204 C295.81663,297.351361 297.351361,295.81663 298.397204,293.861074 C299.443046,291.905519 300,289.965801 300,284.616689 L300,284.616689 L300,35.3833112 C300,30.0341988 299.443046,28.0944813 298.397204,26.1389258 C297.351361,24.1833702 295.81663,22.6486388 293.861074,21.6027962 C291.905519,20.5569537 289.965801,20 284.616689,20 L284.616689,20 Z" id="Combined-Shape" fill="#000000"></path>
        <path d="M271.590287,44 C273.819084,44 274.627299,44.232064 275.442114,44.6678318 C276.256929,45.1035995 276.896401,45.7430709 277.332168,46.5578857 C277.767936,47.3727006 278,48.1809162 278,50.409713 L278,271.590287 C278,273.819084 277.767936,274.627299 277.332168,275.442114 C276.896401,276.256929 276.256929,276.896401 275.442114,277.332168 C274.627299,277.767936 273.819084,278 271.590287,278 L50.409713,278 C48.1809162,278 47.3727006,277.767936 46.5578857,277.332168 C45.7430709,276.896401 45.1035995,276.256929 44.6678318,275.442114 C44.232064,274.627299 44,273.819084 44,271.590287 L44,50.409713 C44,48.1809162 44.232064,47.3727006 44.6678318,46.5578857 C45.1035995,45.7430709 45.7430709,45.1035995 46.5578857,44.6678318 C47.3727006,44.232064 48.1809162,44 50.409713,44 L271.590287,44 Z M265.718057,53 L54.2819426,53 C53.8361832,53 53.6745401,53.0464128 53.5115771,53.1335664 C53.3486142,53.2207199 53.2207199,53.3486142 53.1335664,53.5115771 C53.0464128,53.6745401 53,53.8361832 53,54.2819426 L53,54.2819426 L53,265.718057 C53,266.163817 53.0464128,266.32546 53.1335664,266.488423 C53.2207199,266.651386 53.3486142,266.77928 53.5115771,266.866434 C53.6745401,266.953587 53.8361832,267 54.2819426,267 L54.2819426,267 L265.718057,267 C266.163817,267 266.32546,266.953587 266.488423,266.866434 C266.651386,266.77928 266.77928,266.651386 266.866434,266.488423 C266.953587,266.32546 267,266.163817 267,265.718057 L267,265.718057 L267,54.2819426 C267,53.8361832 266.953587,53.6745401 266.866434,53.5115771 C266.77928,53.3486142 266.651386,53.2207199 266.488423,53.1335664 C266.32546,53.0464128 266.163817,53 265.718057,53 L265.718057,53 Z" id="Combined-Shape" fill="#000000"></path>
    </g>
</svg>