<?xml version="1.0" encoding="UTF-8"?>
<svg width="320px" height="320px" viewBox="0 0 320 320" version="1.1" xmlns="http://www.w3.org/2000/svg" xmlns:xlink="http://www.w3.org/1999/xlink">
    <title>images / 9101SAC-HP-Switch Copy</title>
    <g id="images-/-9101SAC-HP-Switch-Copy" stroke="none" stroke-width="1" fill="none" fill-rule="evenodd">
        <path d="M239.292929,10 L310,79 L310,261 L260.505051,310 L60.5050505,310 L10,261 L10,79 L79.6969697,10 L239.292929,10 Z M234.006734,20 L85.0505051,20 L76.143,28.817 L105.426407,58.1005051 L53.1005051,110.426407 L23.554,80.88 L20,84.4 L20,254.266667 L60,293.075 L60,256 L226,256 L226,300 L253.804714,300 L300,254.266667 L300,84.4 L234.006734,20 Z M88.4141941,270.033977 L70.3168517,285.218265 C72.3983481,286.955013 75.0771392,288 78,288 C84.627417,288 90,282.627417 90,276 C90,273.828288 89.4231019,271.791317 88.4141941,270.033977 Z M99,276 C99,282.627417 104.372583,288 111,288 C113.216707,288 115.293031,287.398949 117.07489,286.35093 L101.862343,268.221255 C100.077372,270.316022 99,273.032194 99,276 Z M132,276 C132,282.627417 137.372583,288 144,288 C146.216707,288 148.293031,287.398949 150.07489,286.35093 L134.862343,268.221255 C133.077372,270.316022 132,273.032194 132,276 Z M187.414194,270.033977 L169.316852,285.218265 C171.398348,286.955013 174.077139,288 177,288 C183.627417,288 189,282.627417 189,276 C189,273.828288 188.423102,271.791317 187.414194,270.033977 Z M220.35093,269.92511 L202.221255,285.137657 C204.316022,286.922628 207.032194,288 210,288 C216.627417,288 222,282.627417 222,276 C222,273.783293 221.398949,271.706969 220.35093,269.92511 Z M111,264 C108.783293,264 106.706969,264.601051 104.92511,265.64907 L120.137657,283.778745 C121.922628,281.683978 123,278.967806 123,276 C123,269.372583 117.627417,264 111,264 Z M144,264 C141.783293,264 139.706969,264.601051 137.92511,265.64907 L153.137657,283.778745 C154.922628,281.683978 156,278.967806 156,276 C156,269.372583 150.627417,264 144,264 Z M177,264 C170.372583,264 165,269.372583 165,276 C165,278.261168 165.625403,280.376265 166.71267,282.181751 L184.873154,266.943635 C182.765899,265.110134 180.012592,264 177,264 Z M78,264 C71.372583,264 66,269.372583 66,276 C66,278.261168 66.6254034,280.376265 67.7126696,282.181751 L85.8731541,266.943635 C83.7658988,265.110134 81.0125922,264 78,264 Z M210,264 C203.372583,264 198,269.372583 198,276 C198,278.216707 198.601051,280.293031 199.64907,282.07489 L217.778745,266.862343 C215.683978,265.077372 212.967806,264 210,264 Z M228.808587,33.4887291 C235.217654,33.4887291 241.375772,35.9498677 246.016478,40.3534385 L246.345359,40.6712758 L286.02859,79.7293693 C290.694597,84.3218711 293.368527,90.556726 293.487659,97.0905092 L293.491819,97.5468226 L293.491819,221 C293.491819,234.669048 282.521676,245.775881 268.905239,245.996651 L268.491819,246 L50.2207407,246 C36.5516931,246 25.4448597,235.029857 25.22409,221.413421 L25.2207407,221 L25.2207407,156.042725 C25.2207407,153.281301 27.4593169,151.042725 30.2207407,151.042725 C32.9094954,151.042725 35.1025588,153.165031 35.2161212,155.825835 L35.2207407,156.042725 L35.2207407,221 C35.2207407,229.179407 41.767527,235.82973 49.9069125,235.996782 L50.2207407,236 L268.491819,236 C276.671226,236 283.321549,229.453214 283.488601,221.313828 L283.491819,221 L283.491819,97.5468226 C283.491819,93.6612778 281.984348,89.9328774 279.296168,87.1417161 L279.013882,86.8563506 L239.33065,47.7982571 C236.618289,45.1286239 232.996449,43.5932671 229.201731,43.4938762 L228.808587,43.4887291 L163,43.4887291 C160.238576,43.4887291 158,41.2501529 158,38.4887291 C158,35.7999744 160.122307,33.606911 162.78311,33.4933487 L163,33.4887291 L228.808587,33.4887291 Z M119,130 C124.522847,130 129,134.477153 129,140 C129,145.522847 124.522847,150 119,150 C113.477153,150 109,145.522847 109,140 C109,134.477153 113.477153,130 119,130 Z M180,130 C185.522847,130 190,134.477153 190,140 C190,145.522847 185.522847,150 180,150 C174.477153,150 170,145.522847 170,140 C170,134.477153 174.477153,130 180,130 Z M57.4007717,68.6128283 L54.663522,99.9145652 C62.718366,99.0824803 69,92.2748173 69,84 C69,76.6897119 64.0974189,70.524483 57.4007717,68.6128283 Z M51.4259,68.0764501 C43.3281731,68.8671964 37,75.6945862 37,84 C37,91.3412284 41.9441687,97.5276844 48.6843538,99.4112157 L51.4259,68.0764501 Z M83.3156462,42.5887843 L80.5741,73.9235499 C88.6718269,73.1328036 95,66.3054138 95,58 C95,50.6587716 90.0558313,44.4723156 83.3156462,42.5887843 Z M77.336478,42.0854348 C69.281634,42.9175197 63,49.7251827 63,58 C63,65.3102881 67.9025811,71.475517 74.5992283,73.3871717 L77.336478,42.0854348 Z" id="Combined-Shape" fill="#000000" fill-rule="nonzero"></path>
    </g>
</svg>